<?xml version="1.0" encoding="UTF-8"?>
<svg version="1.1" xmlns="http://www.w3.org/2000/svg" width="413" height="85">
<path d="M0 0 C21.49605516 -0.02332692 42.99210825 -0.04097815 64.48817348 -0.05181217 C74.46843831 -0.05697557 84.44869529 -0.0640191 94.42895508 -0.07543945 C103.1244614 -0.08538496 111.81996205 -0.09185311 120.5154739 -0.09408849 C125.12263731 -0.09539583 129.72978446 -0.09848312 134.33694267 -0.10573006 C138.66818592 -0.11248817 142.99940612 -0.11461739 147.33065414 -0.11310768 C148.92505455 -0.1133841 150.51945568 -0.11539047 152.11385155 -0.11920547 C154.28116571 -0.12413947 156.44839143 -0.1229994 158.6157074 -0.12025452 C160.43947482 -0.12163721 160.43947482 -0.12163721 162.30008602 -0.12304783 C165 0 165 0 166 1 C166.07179964 2.51928038 166.08392007 4.04167482 166.0625 5.5625 C166.05347656 6.38878906 166.04445312 7.21507812 166.03515625 8.06640625 C166.01775391 9.02353516 166.01775391 9.02353516 166 10 C167.216875 10.268125 168.43375 10.53625 169.6875 10.8125 C175.19532206 12.20405222 178.83132236 14.16359729 182 19 C182.50805176 18.02437607 183.01610352 17.04875214 183.53955078 16.04356384 C186 13 186 13 189.33935547 12.27174377 C190.68185216 12.25138529 192.02510017 12.26407573 193.3671875 12.30297852 C194.47033295 12.29925484 194.47033295 12.29925484 195.59576416 12.29545593 C198.02322849 12.29453871 200.44794062 12.33632447 202.875 12.37890625 C204.56362844 12.3875635 206.25227148 12.39370767 207.94091797 12.39744568 C212.38520762 12.41467332 216.82834189 12.46878491 221.2722168 12.52972412 C224.89851124 12.57329613 228.52470933 12.59086795 232.1512146 12.60699558 C236.47587671 12.62661641 240.80043124 12.65715722 245.125 12.69140625 C246.36222809 12.70104495 246.36222809 12.70104495 247.62445068 12.71087837 C249.96068163 12.73189192 252.29669616 12.76018129 254.6328125 12.79125977 C255.32280334 12.79709076 256.01279419 12.80292175 256.72369385 12.80892944 C259.9793863 12.86009619 262.85995911 13.16806502 266 14 C266.33 13.67 266.66 13.34 267 13 C268.51874979 12.90161878 270.04203259 12.87201471 271.56396484 12.87060547 C272.53522308 12.86745331 273.50648132 12.86430115 274.50717163 12.86105347 C275.56441437 12.8630777 276.6216571 12.86510193 277.7109375 12.8671875 C278.79001373 12.86623077 279.86908997 12.86527405 280.98086548 12.86428833 C283.26914528 12.86360623 285.55742701 12.86546258 287.84570312 12.86962891 C291.35290883 12.87496638 294.85998586 12.86969025 298.3671875 12.86328125 C300.58593778 12.86394223 302.80468799 12.8652238 305.0234375 12.8671875 C306.07663177 12.86516327 307.12982605 12.86313904 308.2149353 12.86105347 C309.19249786 12.86420563 310.17006042 12.86735779 311.17724609 12.87060547 C312.03804779 12.87140106 312.89884949 12.87219666 313.78573608 12.87301636 C316 13 316 13 319 14 C319.66 13.67 320.32 13.34 321 13 C322.8863912 12.915085 324.77578515 12.892807 326.6640625 12.90234375 C327.78554688 12.90556641 328.90703125 12.90878906 330.0625 12.91210938 C331.238125 12.92048828 332.41375 12.92886719 333.625 12.9375 C334.80835938 12.94201172 335.99171875 12.94652344 337.2109375 12.95117188 C340.14067507 12.96298533 343.07031272 12.97945742 346 13 C346.66 15.97 347.32 18.94 348 22 C350.31 22 352.62 22 355 22 C356.485 17.545 356.485 17.545 358 13 C360.375 12.875 360.375 12.875 363 13 C365.68487165 15.68487165 365.25769449 17.06476981 365.265625 20.8125 C365.26820313 21.97007813 365.27078125 23.12765625 365.2734375 24.3203125 C365.26570313 25.53460938 365.25796875 26.74890625 365.25 28 C365.25773437 29.21429688 365.26546875 30.42859375 365.2734375 31.6796875 C365.26957031 33.41605469 365.26957031 33.41605469 365.265625 35.1875 C365.26336914 36.25355469 365.26111328 37.31960937 365.25878906 38.41796875 C365 41 365 41 363 43 C360.5625 43.4375 360.5625 43.4375 358 43 C355.80743153 40.1809834 354.64822749 37.50042844 354 34 C352.68 34 351.36 34 350 34 C348.68 36.97 347.36 39.94 346 43 C343.79570313 43.09087891 343.79570313 43.09087891 341.546875 43.18359375 C339.61457395 43.26801467 337.68228278 43.3526619 335.75 43.4375 C334.78191406 43.47681641 333.81382812 43.51613281 332.81640625 43.55664062 C331.88183594 43.59853516 330.94726562 43.64042969 329.984375 43.68359375 C329.12553711 43.72025146 328.26669922 43.75690918 327.38183594 43.79467773 C325.01138968 43.92966248 325.01138968 43.92966248 322.82568359 44.57910156 C321 45 321 45 318.8046875 44.05078125 C314.24322316 42.34182038 309.57565192 43.02696808 304.76953125 43.34179688 C299.49026161 43.51481496 296.50774663 42.61113531 292.30810547 39.38012695 C290.33184627 37.29505916 289.99055544 35.44171502 290.05078125 32.625 C290.18033203 31.325625 290.18033203 31.325625 290.3125 30 C290.39113281 29.13375 290.46976562 28.2675 290.55078125 27.375 C291 25 291 25 293 22 C290.69 22.33 288.38 22.66 286 23 C285.94465088 23.57032959 285.88930176 24.14065918 285.83227539 24.72827148 C285.58026257 27.29848753 285.32147272 29.86797631 285.0625 32.4375 C284.97548828 33.33533203 284.88847656 34.23316406 284.79882812 35.15820312 C284.71181641 36.01220703 284.62480469 36.86621094 284.53515625 37.74609375 C284.456604 38.53685303 284.37805176 39.3276123 284.29711914 40.14233398 C284 42 284 42 283 43 C280 43.125 280 43.125 277 43 C275.04372175 41.04372175 275.63568047 37.37347081 275.5 34.6875 C275.23874736 28.77184674 275.23874736 28.77184674 274 23 C272.35 22.67 270.7 22.34 269 22 C268.855625 23.051875 268.71125 24.10375 268.5625 25.1875 C268 29 268 29 267.3125 31.5625 C266.89935307 34.78504603 267.82016258 37.01570534 269 40 C267.68 41.32 266.36 42.64 265 44 C260.28596319 42.78781911 258.69978537 40.53839711 256.30859375 36.55859375 C254.67785489 34.61631075 253.46149631 34.37989267 251 34 C250.87625 35.11375 250.7525 36.2275 250.625 37.375 C250 41 250 41 248 43 C244.14805845 43.53896151 240.26025979 43.46330333 236.375 43.5 C234.77205078 43.561875 234.77205078 43.561875 233.13671875 43.625 C226.66770294 43.68865575 222.33825825 43.03150796 217.38574219 38.6796875 C215.32644267 36.18356687 215.15164722 34.43396024 215.4375 31.25 C215.49808594 30.30640625 215.55867187 29.3628125 215.62109375 28.390625 C216 26 216 26 217 24 C215.35 23.67 213.7 23.34 212 23 C212.03480469 24.10859375 212.06960937 25.2171875 212.10546875 26.359375 C212.13361349 27.82290148 212.16091292 29.28644439 212.1875 30.75 C212.21263672 31.47960937 212.23777344 32.20921875 212.26367188 32.9609375 C212.30812211 36.22062158 212.22423942 38.57930304 210.67578125 41.484375 C209 43 209 43 206 43.5 C203 43 203 43 201.35546875 41.484375 C199.4593412 38.00905188 199.43216047 34.62016147 199.3125 30.75 C199.27833984 30.00492188 199.24417969 29.25984375 199.20898438 28.4921875 C199.12685946 26.66197508 199.06174347 24.83101331 199 23 C198.01 23 197.02 23 196 23 C195.97421875 24.02480469 195.9484375 25.04960938 195.921875 26.10546875 C195.86556942 27.46618699 195.80822263 28.82686243 195.75 30.1875 C195.73582031 30.86103516 195.72164062 31.53457031 195.70703125 32.22851562 C195.47243378 37.03776378 194.4963817 39.67432772 191 43 C187.35673331 43.75614969 185.1743635 43.75168403 181.9921875 41.71484375 C180.18130272 40.22287997 178.52245169 38.78621992 177 37 C177 36.34 177 35.68 177 35 C176.34 35 175.68 35 175 35 C174.87625 35.94875 174.7525 36.8975 174.625 37.875 C174 41 174 41 172 43 C168.8125 43.265625 168.8125 43.265625 165 43.25 C163.741875 43.25515625 162.48375 43.2603125 161.1875 43.265625 C158 43 158 43 156 41 C155.60235737 39.01178687 155.26224651 37.01055661 155 35 C154.484375 36.051875 153.96875 37.10375 153.4375 38.1875 C150.99890949 43.09080878 148.34324427 47.87006377 145.68359375 52.65625 C144.41011373 55.18548179 143.36689939 57.56674012 142.39477539 60.20898438 C141.99990685 61.2774762 141.99990685 61.2774762 141.59706116 62.36755371 C141.30151588 63.17561462 141.30151588 63.17561462 141 64 C109.25417964 64.88705569 77.56475386 65.0560059 45.80999756 64.66339111 C41.39162806 64.61115824 36.97318592 64.56815546 32.55471897 64.52509499 C28.25068513 64.48231245 23.94671217 64.43491644 19.64274406 64.38599777 C17.61466697 64.3632963 15.58657638 64.34176683 13.55847359 64.32149124 C10.75838877 64.29260805 7.95844121 64.25773775 5.15844727 64.22119141 C4.34467621 64.2138649 3.53090515 64.20653839 2.69247437 64.19898987 C-11.00140664 63.99859336 -11.00140664 63.99859336 -13 62 C-13.16070378 59.07714035 -13.25978128 56.17545838 -13.31640625 53.25 C-13.33718735 52.36272217 -13.35796844 51.47544434 -13.37937927 50.5612793 C-13.44496219 47.70760124 -13.50367558 44.85382454 -13.5625 42 C-13.60569747 40.10545907 -13.64931216 38.21092761 -13.69335938 36.31640625 C-14.24539364 11.84123746 -14.24539364 11.84123746 -12 3 C-6.06 2.505 -6.06 2.505 0 2 C0 1.34 0 0.68 0 0 Z M0 14 C-1.27082331 17.81246994 -0.49330543 18.86438757 1.0546875 22.5078125 C1.50457031 23.57644531 1.95445313 24.64507812 2.41796875 25.74609375 C2.89878906 26.86113281 3.37960938 27.97617187 3.875 29.125 C4.34808594 30.24777344 4.82117188 31.37054688 5.30859375 32.52734375 C7.10833494 37.60161494 7.10833494 37.60161494 10 42 C11.66617115 42.04063832 13.33388095 42.042721 15 42 C18.17734215 35.98273257 20.56920891 29.93941747 22.75 23.5 C23.06582031 22.5821875 23.38164063 21.664375 23.70703125 20.71875 C24.47632171 18.48081411 25.24052558 16.241282 26 14 C24.35 14 22.7 14 21 14 C20.68546875 14.70125 20.3709375 15.4025 20.046875 16.125 C19.61890625 17.07375 19.1909375 18.0225 18.75 19 C18.12351562 20.3921875 18.12351562 20.3921875 17.484375 21.8125 C15.72988694 25.58003225 13.87540806 29.29153939 12 33 C11.77860352 32.45996338 11.55720703 31.91992676 11.32910156 31.36352539 C10.31830862 28.9230547 9.28456095 26.49298451 8.25 24.0625 C7.90195312 23.21236328 7.55390625 22.36222656 7.1953125 21.48632812 C6.67324219 20.27299805 6.67324219 20.27299805 6.140625 19.03515625 C5.82641602 18.2862915 5.51220703 17.53742676 5.18847656 16.76586914 C4.12403733 14.80511563 4.12403733 14.80511563 1.86621094 14.24780273 C1.25036133 14.16602783 0.63451172 14.08425293 0 14 Z M32 14 C29.43171806 16.68092931 28.12588947 19.72273048 26.73828125 23.1328125 C26.34189453 24.10347656 25.94550781 25.07414062 25.53710938 26.07421875 C25.13298828 27.08097656 24.72886719 28.08773437 24.3125 29.125 C23.89677734 30.13949219 23.48105469 31.15398438 23.05273438 32.19921875 C20.87645428 36.95469202 20.87645428 36.95469202 20 42 C21.98 42 23.96 42 26 42 C26.33 40.35 26.66 38.7 27 37 C29.97 37 32.94 37 36 37 C35.67 35.35 35.34 33.7 35 32 C33.35 31.67 31.7 31.34 30 31 C30.4495045 29.68445015 30.90989716 28.37261642 31.375 27.0625 C31.63023438 26.33160156 31.88546875 25.60070312 32.1484375 24.84765625 C33 23 33 23 35 22 C35.391875 23.258125 35.78375 24.51625 36.1875 25.8125 C38.03884094 31.40212552 40.48545526 36.68268207 43 42 C44.65 42 46.3 42 48 42 C46.11208721 35.89204686 43.84712577 29.97986398 41.4375 24.0625 C41.13255615 23.30461182 40.8276123 22.54672363 40.51342773 21.76586914 C38.80146679 17.54002256 38.80146679 17.54002256 36 14 C34.68 14 33.36 14 32 14 Z M49 14 C46.71969092 16.28030908 47.767175 21.6282023 47.75 24.6875 C47.729375 25.58662109 47.70875 26.48574219 47.6875 27.41210938 C47.65651963 32.69039003 47.97939699 36.46176392 51 41 C54.06533164 42.53266582 57.26754272 42.10276471 60.625 42.0625 C61.33140625 42.05798828 62.0378125 42.05347656 62.765625 42.04882812 C64.51045275 42.03703875 66.255237 42.01910324 68 42 C68 40.35 68 38.7 68 37 C61.07 36.505 61.07 36.505 54 36 C53.67 29.07 53.34 22.14 53 15 C51.68 14.67 50.36 14.34 49 14 Z M71 14 C71 15.65 71 17.3 71 19 C76.28 19.33 81.56 19.66 87 20 C87.33 21.32 87.66 22.64 88 24 C86.85660156 24.06058594 85.71320313 24.12117188 84.53515625 24.18359375 C83.04425695 24.26798428 81.55337225 24.35263302 80.0625 24.4375 C78.93038086 24.49647461 78.93038086 24.49647461 77.77539062 24.55664062 C74.08055813 24.44038024 74.08055813 24.44038024 71 26 C70.7375117 28.30698048 70.53959057 30.62147561 70.375 32.9375 C70.27960938 34.20464844 70.18421875 35.47179687 70.0859375 36.77734375 C69.74977745 39.89196955 69.74977745 39.89196955 71 42 C72.65 41.67 74.3 41.34 76 41 C76 37.7 76 34.4 76 31 C76.89203125 31.04640625 77.7840625 31.0928125 78.703125 31.140625 C79.87359375 31.17671875 81.0440625 31.2128125 82.25 31.25 C83.41015625 31.29640625 84.5703125 31.3428125 85.765625 31.390625 C89.0427327 31.25596184 89.0427327 31.25596184 91.390625 29.30078125 C93.27246247 26.61048448 93.53929069 25.19371578 93.5 21.9375 C93.5103125 21.08027344 93.520625 20.22304688 93.53125 19.33984375 C93.16618358 16.93535198 93.16618358 16.93535198 91.546875 15.203125 C87.66339825 13.36859917 83.98338418 13.68351408 79.75 13.8125 C78.48929688 13.83280273 78.48929688 13.83280273 77.203125 13.85351562 C75.13514062 13.88876536 73.06748729 13.9425698 71 14 Z M96 14 C96 15.65 96 17.3 96 19 C101.94 19.33 107.88 19.66 114 20 C114 21.65 114 23.3 114 25 C112.78441406 24.98839844 111.56882812 24.97679687 110.31640625 24.96484375 C108.73177236 24.95546722 107.14713682 24.94636687 105.5625 24.9375 C104.35883789 24.92493164 104.35883789 24.92493164 103.13085938 24.91210938 C101.08704779 24.9034857 99.04316098 24.9477185 97 25 C95.58225162 26.18852855 95.58225162 26.18852855 95.90234375 29.59765625 C95.9090178 31.08596867 95.92097817 32.57426432 95.9375 34.0625 C95.94201172 34.82111328 95.94652344 35.57972656 95.95117188 36.36132812 C95.9629932 38.24091871 95.98092922 40.12046899 96 42 C97.65 42 99.3 42 101 42 C101 38.37 101 34.74 101 31 C103.64 31 106.28 31 109 31 C109.268125 31.70125 109.53625 32.4025 109.8125 33.125 C111.0681449 36.1649824 112.50235123 39.0727774 114 42 C115.98 42 117.96 42 120 42 C118.41037341 37.96479403 116.71767682 33.98188718 115 30 C115.66 30 116.32 30 117 30 C119.34144827 26.34148709 119.44965259 23.27169964 119 19 C117.69887596 16.12373836 117.69887596 16.12373836 115 14 C111.73068722 13.38222775 108.56212162 13.52849859 105.25 13.6875 C103.91775391 13.72133789 103.91775391 13.72133789 102.55859375 13.75585938 C100.37067188 13.81467448 98.18620329 13.89678732 96 14 Z M122 18 C120.50631136 20.98737728 120.81562001 24.03960907 120.8125 27.3125 C120.79832031 28.62863281 120.78414062 29.94476563 120.76953125 31.30078125 C120.98648585 34.78308637 121.26516239 36.99550205 123 40 C126.32838715 42.54251796 129.92975224 42.33188297 134 42.375 C135.216875 42.40335938 136.43375 42.43171875 137.6875 42.4609375 C141.04267073 42.26541446 141.04267073 42.26541446 143.375 40.2265625 C147.23362746 34.93950084 146.31909595 28.28115188 146 22 C145.52566563 18.46888229 145.52566563 18.46888229 144 16 C140.14189255 14.00155585 136.7473208 13.67493999 132.4375 13.625 C131.32246094 13.59664062 130.20742187 13.56828125 129.05859375 13.5390625 C125.37302282 14.09448698 124.27559699 15.11936193 122 18 Z M242 22 C242 22.33 242 22.66 242 23 C246.95 23 251.9 23 257 23 C257 22.67 257 22.34 257 22 C252.05 22 247.1 22 242 22 Z M324 23 C323.94600264 24.45792884 323.90720823 25.91642712 323.875 27.375 C323.85179687 28.18710937 323.82859375 28.99921875 323.8046875 29.8359375 C323.78629949 32.21342243 323.78629949 32.21342243 326 34 C328.40491422 34.28090287 328.40491422 34.28090287 331.0625 34.1875 C331.96097656 34.18105469 332.85945313 34.17460938 333.78515625 34.16796875 C335.97325599 34.24394743 335.97325599 34.24394743 337 33 C337.09823937 31.33570949 337.12973631 29.66718069 337.125 28 C337.12757813 27.0925 337.13015625 26.185 337.1328125 25.25 C337.25173779 23.03033389 337.25173779 23.03033389 336 22 C334.35659133 21.90145345 332.7088539 21.87027589 331.0625 21.875 C330.16660156 21.87242188 329.27070313 21.86984375 328.34765625 21.8671875 C325.97844445 21.84578587 325.97844445 21.84578587 324 23 Z " fill="#233592" transform="translate(36,12)"/>
<path d="M0 0 C21.49605516 -0.02332692 42.99210825 -0.04097815 64.48817348 -0.05181217 C74.46843831 -0.05697557 84.44869529 -0.0640191 94.42895508 -0.07543945 C103.1244614 -0.08538496 111.81996205 -0.09185311 120.5154739 -0.09408849 C125.12263731 -0.09539583 129.72978446 -0.09848312 134.33694267 -0.10573006 C138.66818592 -0.11248817 142.99940612 -0.11461739 147.33065414 -0.11310768 C148.92505455 -0.1133841 150.51945568 -0.11539047 152.11385155 -0.11920547 C154.28116571 -0.12413947 156.44839143 -0.1229994 158.6157074 -0.12025452 C160.43947482 -0.12163721 160.43947482 -0.12163721 162.30008602 -0.12304783 C165 0 165 0 166 1 C166.07179964 2.51928038 166.08392007 4.04167482 166.0625 5.5625 C166.05347656 6.38878906 166.04445312 7.21507812 166.03515625 8.06640625 C166.01775391 9.02353516 166.01775391 9.02353516 166 10 C167.216875 10.268125 168.43375 10.53625 169.6875 10.8125 C175.19532206 12.20405222 178.83132236 14.16359729 182 19 C182.50805176 18.02437607 183.01610352 17.04875214 183.53955078 16.04356384 C186 13 186 13 189.33935547 12.27174377 C190.68185216 12.25138529 192.02510017 12.26407573 193.3671875 12.30297852 C194.47033295 12.29925484 194.47033295 12.29925484 195.59576416 12.29545593 C198.02322849 12.29453871 200.44794062 12.33632447 202.875 12.37890625 C204.56362844 12.3875635 206.25227148 12.39370767 207.94091797 12.39744568 C212.38520762 12.41467332 216.82834189 12.46878491 221.2722168 12.52972412 C224.89851124 12.57329613 228.52470933 12.59086795 232.1512146 12.60699558 C236.47587671 12.62661641 240.80043124 12.65715722 245.125 12.69140625 C246.36222809 12.70104495 246.36222809 12.70104495 247.62445068 12.71087837 C249.96068163 12.73189192 252.29669616 12.76018129 254.6328125 12.79125977 C255.32280334 12.79709076 256.01279419 12.80292175 256.72369385 12.80892944 C259.9793863 12.86009619 262.85995911 13.16806502 266 14 C266.33 13.67 266.66 13.34 267 13 C268.51874979 12.90161878 270.04203259 12.87201471 271.56396484 12.87060547 C272.53522308 12.86745331 273.50648132 12.86430115 274.50717163 12.86105347 C275.56441437 12.8630777 276.6216571 12.86510193 277.7109375 12.8671875 C278.79001373 12.86623077 279.86908997 12.86527405 280.98086548 12.86428833 C283.26914528 12.86360623 285.55742701 12.86546258 287.84570312 12.86962891 C291.35290883 12.87496638 294.85998586 12.86969025 298.3671875 12.86328125 C300.58593778 12.86394223 302.80468799 12.8652238 305.0234375 12.8671875 C306.07663177 12.86516327 307.12982605 12.86313904 308.2149353 12.86105347 C309.19249786 12.86420563 310.17006042 12.86735779 311.17724609 12.87060547 C312.03804779 12.87140106 312.89884949 12.87219666 313.78573608 12.87301636 C316 13 316 13 319 14 C319.66 13.67 320.32 13.34 321 13 C322.8863912 12.915085 324.77578515 12.892807 326.6640625 12.90234375 C327.78554688 12.90556641 328.90703125 12.90878906 330.0625 12.91210938 C331.238125 12.92048828 332.41375 12.92886719 333.625 12.9375 C334.80835938 12.94201172 335.99171875 12.94652344 337.2109375 12.95117188 C340.14067507 12.96298533 343.07031272 12.97945742 346 13 C346.66 15.97 347.32 18.94 348 22 C350.31 22 352.62 22 355 22 C356.485 17.545 356.485 17.545 358 13 C360.375 12.875 360.375 12.875 363 13 C365.68487165 15.68487165 365.25769449 17.06476981 365.265625 20.8125 C365.26820313 21.97007813 365.27078125 23.12765625 365.2734375 24.3203125 C365.26570313 25.53460938 365.25796875 26.74890625 365.25 28 C365.25773437 29.21429688 365.26546875 30.42859375 365.2734375 31.6796875 C365.26957031 33.41605469 365.26957031 33.41605469 365.265625 35.1875 C365.26336914 36.25355469 365.26111328 37.31960937 365.25878906 38.41796875 C365 41 365 41 363 43 C360.5625 43.4375 360.5625 43.4375 358 43 C355.80743153 40.1809834 354.64822749 37.50042844 354 34 C352.68 34 351.36 34 350 34 C348.68 36.97 347.36 39.94 346 43 C343.79570313 43.09087891 343.79570313 43.09087891 341.546875 43.18359375 C339.61457395 43.26801467 337.68228278 43.3526619 335.75 43.4375 C334.78191406 43.47681641 333.81382812 43.51613281 332.81640625 43.55664062 C331.88183594 43.59853516 330.94726562 43.64042969 329.984375 43.68359375 C329.12553711 43.72025146 328.26669922 43.75690918 327.38183594 43.79467773 C325.01138968 43.92966248 325.01138968 43.92966248 322.82568359 44.57910156 C321 45 321 45 318.8046875 44.05078125 C314.24322316 42.34182038 309.57565192 43.02696808 304.76953125 43.34179688 C299.49026161 43.51481496 296.50774663 42.61113531 292.30810547 39.38012695 C290.33184627 37.29505916 289.99055544 35.44171502 290.05078125 32.625 C290.18033203 31.325625 290.18033203 31.325625 290.3125 30 C290.39113281 29.13375 290.46976562 28.2675 290.55078125 27.375 C291 25 291 25 293 22 C290.69 22.33 288.38 22.66 286 23 C285.94465088 23.57032959 285.88930176 24.14065918 285.83227539 24.72827148 C285.58026257 27.29848753 285.32147272 29.86797631 285.0625 32.4375 C284.97548828 33.33533203 284.88847656 34.23316406 284.79882812 35.15820312 C284.71181641 36.01220703 284.62480469 36.86621094 284.53515625 37.74609375 C284.456604 38.53685303 284.37805176 39.3276123 284.29711914 40.14233398 C284 42 284 42 283 43 C280 43.125 280 43.125 277 43 C275.04372175 41.04372175 275.63568047 37.37347081 275.5 34.6875 C275.23874736 28.77184674 275.23874736 28.77184674 274 23 C272.35 22.67 270.7 22.34 269 22 C268.855625 23.051875 268.71125 24.10375 268.5625 25.1875 C268 29 268 29 267.3125 31.5625 C266.89935307 34.78504603 267.82016258 37.01570534 269 40 C267.68 41.32 266.36 42.64 265 44 C260.28596319 42.78781911 258.69978537 40.53839711 256.30859375 36.55859375 C254.67785489 34.61631075 253.46149631 34.37989267 251 34 C250.87625 35.11375 250.7525 36.2275 250.625 37.375 C250 41 250 41 248 43 C244.14805845 43.53896151 240.26025979 43.46330333 236.375 43.5 C234.77205078 43.561875 234.77205078 43.561875 233.13671875 43.625 C226.66770294 43.68865575 222.33825825 43.03150796 217.38574219 38.6796875 C215.32644267 36.18356687 215.15164722 34.43396024 215.4375 31.25 C215.49808594 30.30640625 215.55867187 29.3628125 215.62109375 28.390625 C216 26 216 26 217 24 C215.35 23.67 213.7 23.34 212 23 C212.03480469 24.10859375 212.06960937 25.2171875 212.10546875 26.359375 C212.13361349 27.82290148 212.16091292 29.28644439 212.1875 30.75 C212.21263672 31.47960937 212.23777344 32.20921875 212.26367188 32.9609375 C212.30812211 36.22062158 212.22423942 38.57930304 210.67578125 41.484375 C209 43 209 43 206 43.5 C203 43 203 43 201.35546875 41.484375 C199.4593412 38.00905188 199.43216047 34.62016147 199.3125 30.75 C199.27833984 30.00492188 199.24417969 29.25984375 199.20898438 28.4921875 C199.12685946 26.66197508 199.06174347 24.83101331 199 23 C198.01 23 197.02 23 196 23 C195.97421875 24.02480469 195.9484375 25.04960938 195.921875 26.10546875 C195.86556942 27.46618699 195.80822263 28.82686243 195.75 30.1875 C195.73582031 30.86103516 195.72164062 31.53457031 195.70703125 32.22851562 C195.47243378 37.03776378 194.4963817 39.67432772 191 43 C187.35673331 43.75614969 185.1743635 43.75168403 181.9921875 41.71484375 C180.18130272 40.22287997 178.52245169 38.78621992 177 37 C177 36.34 177 35.68 177 35 C176.34 35 175.68 35 175 35 C174.87625 35.94875 174.7525 36.8975 174.625 37.875 C174 41 174 41 172 43 C169.8359375 43.1953125 169.8359375 43.1953125 167.375 43.125 C166.55773437 43.10695312 165.74046875 43.08890625 164.8984375 43.0703125 C164.27195313 43.04710937 163.64546875 43.02390625 163 43 C163.0721875 42.33097656 163.144375 41.66195312 163.21875 40.97265625 C164.08928248 31.96506318 164.09637079 23.03743859 164 14 C163.01 13.67 162.02 13.34 161 13 C161.99 10.03 162.98 7.06 164 4 C107.9 3.67 51.8 3.34 -6 3 C-6 2.67 -6 2.34 -6 2 C-4.02 2 -2.04 2 0 2 C0 1.34 0 0.68 0 0 Z M242 22 C242 22.33 242 22.66 242 23 C246.95 23 251.9 23 257 23 C257 22.67 257 22.34 257 22 C252.05 22 247.1 22 242 22 Z M324 23 C323.94600264 24.45792884 323.90720823 25.91642712 323.875 27.375 C323.85179687 28.18710937 323.82859375 28.99921875 323.8046875 29.8359375 C323.78629949 32.21342243 323.78629949 32.21342243 326 34 C328.40491422 34.28090287 328.40491422 34.28090287 331.0625 34.1875 C331.96097656 34.18105469 332.85945313 34.17460938 333.78515625 34.16796875 C335.97325599 34.24394743 335.97325599 34.24394743 337 33 C337.09823937 31.33570949 337.12973631 29.66718069 337.125 28 C337.12757813 27.0925 337.13015625 26.185 337.1328125 25.25 C337.25173779 23.03033389 337.25173779 23.03033389 336 22 C334.35659133 21.90145345 332.7088539 21.87027589 331.0625 21.875 C330.16660156 21.87242188 329.27070313 21.86984375 328.34765625 21.8671875 C325.97844445 21.84578587 325.97844445 21.84578587 324 23 Z " fill="#192C9B" transform="translate(36,12)"/>
<path d="M0 0 C1.11826172 0.00966797 2.23652344 0.01933594 3.38867188 0.02929688 C5.13954102 0.06700195 5.13954102 0.06700195 6.92578125 0.10546875 C8.10462891 0.11900391 9.28347656 0.13253906 10.49804688 0.14648438 C13.41191536 0.18187549 16.3248707 0.23125066 19.23828125 0.29296875 C20.22828125 4.74796875 20.22828125 4.74796875 21.23828125 9.29296875 C23.54828125 9.29296875 25.85828125 9.29296875 28.23828125 9.29296875 C29.22828125 6.32296875 30.21828125 3.35296875 31.23828125 0.29296875 C33.61328125 0.16796875 33.61328125 0.16796875 36.23828125 0.29296875 C38.9231529 2.9778404 38.49597574 4.35773856 38.50390625 8.10546875 C38.50777344 9.84183594 38.50777344 9.84183594 38.51171875 11.61328125 C38.50398438 12.82757813 38.49625 14.041875 38.48828125 15.29296875 C38.49988281 17.11441406 38.49988281 17.11441406 38.51171875 18.97265625 C38.50914062 20.13023438 38.5065625 21.2878125 38.50390625 22.48046875 C38.50165039 23.54652344 38.49939453 24.61257812 38.49707031 25.7109375 C38.23828125 28.29296875 38.23828125 28.29296875 36.23828125 30.29296875 C33.80078125 30.73046875 33.80078125 30.73046875 31.23828125 30.29296875 C29.04571278 27.47395215 27.88650874 24.79339719 27.23828125 21.29296875 C25.91828125 21.29296875 24.59828125 21.29296875 23.23828125 21.29296875 C21.91828125 24.26296875 20.59828125 27.23296875 19.23828125 30.29296875 C17.03398437 30.38384766 17.03398437 30.38384766 14.78515625 30.4765625 C12.8528552 30.56098342 10.92056403 30.64563065 8.98828125 30.73046875 C8.02019531 30.76978516 7.05210937 30.80910156 6.0546875 30.84960938 C5.12011719 30.89150391 4.18554688 30.93339844 3.22265625 30.9765625 C1.93439941 31.03154907 1.93439941 31.03154907 0.62011719 31.08764648 C-1.75032907 31.22263123 -1.75032907 31.22263123 -3.93603516 31.87207031 C-5.76171875 32.29296875 -5.76171875 32.29296875 -7.95703125 31.34375 C-12.51849559 29.63478913 -17.18606683 30.31993683 -21.9921875 30.63476562 C-27.27145714 30.80778371 -30.25397212 29.90410406 -34.45361328 26.6730957 C-36.42987248 24.58802791 -36.77116331 22.73468377 -36.7109375 19.91796875 C-36.62457031 19.05171875 -36.53820312 18.18546875 -36.44921875 17.29296875 C-36.33126953 15.99359375 -36.33126953 15.99359375 -36.2109375 14.66796875 C-35.76171875 12.29296875 -35.76171875 12.29296875 -33.76171875 9.29296875 C-36.07171875 9.62296875 -38.38171875 9.95296875 -40.76171875 10.29296875 C-40.81706787 10.86329834 -40.87241699 11.43362793 -40.92944336 12.02124023 C-41.18145618 14.59145628 -41.44024603 17.16094506 -41.69921875 19.73046875 C-41.78623047 20.62830078 -41.87324219 21.52613281 -41.96289062 22.45117188 C-42.04990234 23.30517578 -42.13691406 24.15917969 -42.2265625 25.0390625 C-42.30511475 25.82982178 -42.38366699 26.62058105 -42.46459961 27.43530273 C-42.76171875 29.29296875 -42.76171875 29.29296875 -43.76171875 30.29296875 C-45.74171875 30.29296875 -47.72171875 30.29296875 -49.76171875 30.29296875 C-49.76171875 22.70296875 -49.76171875 15.11296875 -49.76171875 7.29296875 C-52.73171875 6.96296875 -55.70171875 6.63296875 -58.76171875 6.29296875 C-58.76171875 4.97296875 -58.76171875 3.65296875 -58.76171875 2.29296875 C-32.88708055 1.00391368 -32.88708055 1.00391368 -20.26171875 1.66796875 C-19.43897461 1.71107178 -18.61623047 1.7541748 -17.76855469 1.79858398 C-14.57259929 1.99807544 -11.81289292 2.27591069 -8.76171875 3.29296875 C-8.3855542 2.80401123 -8.00938965 2.31505371 -7.62182617 1.8112793 C-5.03333916 -0.30157025 -3.3097282 -0.05040195 0 0 Z M-2.76171875 10.29296875 C-2.81571611 11.75089759 -2.85451052 13.20939587 -2.88671875 14.66796875 C-2.90992188 15.48007812 -2.933125 16.2921875 -2.95703125 17.12890625 C-2.97541926 19.50639118 -2.97541926 19.50639118 -0.76171875 21.29296875 C1.64319547 21.57387162 1.64319547 21.57387162 4.30078125 21.48046875 C5.19925781 21.47402344 6.09773438 21.46757813 7.0234375 21.4609375 C9.21153724 21.53691618 9.21153724 21.53691618 10.23828125 20.29296875 C10.33652062 18.62867824 10.36801756 16.96014944 10.36328125 15.29296875 C10.36585938 14.38546875 10.3684375 13.47796875 10.37109375 12.54296875 C10.49001904 10.32330264 10.49001904 10.32330264 9.23828125 9.29296875 C7.59487258 9.1944222 5.94713515 9.16324464 4.30078125 9.16796875 C3.40488281 9.16539063 2.50898438 9.1628125 1.5859375 9.16015625 C-0.7832743 9.13875462 -0.7832743 9.13875462 -2.76171875 10.29296875 Z " fill="#2239A2" transform="translate(362.76171875,24.70703125)"/>
<path d="M0 0 C21.49605516 -0.02332692 42.99210825 -0.04097815 64.48817348 -0.05181217 C74.46843831 -0.05697557 84.44869529 -0.0640191 94.42895508 -0.07543945 C103.1244614 -0.08538496 111.81996205 -0.09185311 120.5154739 -0.09408849 C125.12263731 -0.09539583 129.72978446 -0.09848312 134.33694267 -0.10573006 C138.66818592 -0.11248817 142.99940612 -0.11461739 147.33065414 -0.11310768 C148.92505455 -0.1133841 150.51945568 -0.11539047 152.11385155 -0.11920547 C154.28116571 -0.12413947 156.44839143 -0.1229994 158.6157074 -0.12025452 C160.43947482 -0.12163721 160.43947482 -0.12163721 162.30008602 -0.12304783 C165 0 165 0 166 1 C166.07179964 2.51928038 166.08392007 4.04167482 166.0625 5.5625 C166.05347656 6.38878906 166.04445312 7.21507812 166.03515625 8.06640625 C166.01775391 9.02353516 166.01775391 9.02353516 166 10 C167.216875 10.268125 168.43375 10.53625 169.6875 10.8125 C175.19532206 12.20405222 178.83132236 14.16359729 182 19 C182.40379883 18.02208496 182.80759766 17.04416992 183.22363281 16.03662109 C184.83051422 13.65517769 185.64593501 13.07618319 188.49255371 12.46368408 C191.81649753 12.30376115 195.09509836 12.32693331 198.421875 12.4140625 C199.63699768 12.42255219 200.85212036 12.43104187 202.10406494 12.43978882 C205.98694333 12.47338831 209.86774879 12.54868921 213.75 12.625 C216.38148044 12.6550907 219.01299341 12.68246805 221.64453125 12.70703125 C228.097062 12.77320174 234.54838293 12.87361945 241 13 C240.67 13.66 240.34 14.32 240 15 C224.82 15 209.64 15 194 15 C194 16.32 194 17.64 194 19 C196.97 19.33 199.94 19.66 203 20 C203.33 26.93 203.66 33.86 204 41 C205.65 41 207.3 41 209 41 C209 41.66 209 42.32 209 43 C206.1875 43.25 206.1875 43.25 203 43 C199.80504264 40.10645371 199.58999555 37.14366103 199.38085938 32.9609375 C199.35830078 32.23132812 199.33574219 31.50171875 199.3125 30.75 C199.27833984 30.00492188 199.24417969 29.25984375 199.20898438 28.4921875 C199.12685946 26.66197508 199.06174347 24.83101331 199 23 C198.01 23 197.02 23 196 23 C195.97421875 24.02480469 195.9484375 25.04960938 195.921875 26.10546875 C195.86556942 27.46618699 195.80822263 28.82686243 195.75 30.1875 C195.73582031 30.86103516 195.72164062 31.53457031 195.70703125 32.22851562 C195.47243378 37.03776378 194.4963817 39.67432772 191 43 C187.35673331 43.75614969 185.1743635 43.75168403 181.9921875 41.71484375 C180.18130272 40.22287997 178.52245169 38.78621992 177 37 C177 36.34 177 35.68 177 35 C176.34 35 175.68 35 175 35 C174.87625 35.94875 174.7525 36.8975 174.625 37.875 C174 41 174 41 172 43 C169.8359375 43.1953125 169.8359375 43.1953125 167.375 43.125 C166.55773437 43.10695312 165.74046875 43.08890625 164.8984375 43.0703125 C164.27195313 43.04710937 163.64546875 43.02390625 163 43 C163.0721875 42.33097656 163.144375 41.66195312 163.21875 40.97265625 C164.08928248 31.96506318 164.09637079 23.03743859 164 14 C163.01 13.67 162.02 13.34 161 13 C161.99 10.03 162.98 7.06 164 4 C107.9 3.67 51.8 3.34 -6 3 C-6 2.67 -6 2.34 -6 2 C-4.02 2 -2.04 2 0 2 C0 1.34 0 0.68 0 0 Z " fill="#01077C" transform="translate(36,12)"/>
<path d="M0 0 C1.00780266 -0.00143509 1.00780266 -0.00143509 2.03596497 -0.00289917 C3.4675811 -0.00358103 4.89920031 -0.00172631 6.33081055 0.00244141 C8.46605929 0.00768128 10.60108693 0.00255439 12.73632812 -0.00390625 C21.97573916 -0.00792986 31.12082161 0.39885823 40.33203125 1.1328125 C40.89453125 3.0703125 40.89453125 3.0703125 41.33203125 5.1328125 C40.33203125 6.1328125 40.33203125 6.1328125 36.953125 6.23046875 C35.55856048 6.22379619 34.16401382 6.21183782 32.76953125 6.1953125 C31.7031543 6.18854492 31.7031543 6.18854492 30.61523438 6.18164062 C28.85413112 6.16982114 27.09307089 6.15188513 25.33203125 6.1328125 C25.30512281 8.75788052 25.28523721 11.38267423 25.26953125 14.0078125 C25.25696289 15.12736328 25.25696289 15.12736328 25.24414062 16.26953125 C25.12515041 20.33126828 25.12515041 20.33126828 26.33203125 24.1328125 C23.16608589 24.30920088 20.00142252 24.41433326 16.83203125 24.5078125 C15.94515625 24.55808594 15.05828125 24.60835937 14.14453125 24.66015625 C8.12474048 24.79294575 4.40397059 23.7769666 -0.21630859 19.81689453 C-1.66796875 18.1328125 -1.66796875 18.1328125 -2.484375 15.2109375 C-2.35869141 13.81101562 -2.35869141 13.81101562 -2.23046875 12.3828125 C-2.16988281 11.43921875 -2.10929688 10.495625 -2.046875 9.5234375 C-1.66796875 7.1328125 -1.66796875 7.1328125 -0.66796875 5.1328125 C-2.31796875 4.8028125 -3.96796875 4.4728125 -5.66796875 4.1328125 C-5.61576172 5.83050781 -5.61576172 5.83050781 -5.5625 7.5625 C-5.53436539 9.04425603 -5.50706488 10.52602806 -5.48046875 12.0078125 C-5.44276367 13.12736328 -5.44276367 13.12736328 -5.40429688 14.26953125 C-5.375 16.4375 -5.375 16.4375 -5.66796875 20.1328125 C-6.65796875 20.7928125 -7.64796875 21.4528125 -8.66796875 22.1328125 C-8.66796875 15.2028125 -8.66796875 8.2728125 -8.66796875 1.1328125 C-5.7689704 -0.31668667 -3.23630866 0.0029565 0 0 Z M24.33203125 3.1328125 C24.33203125 3.4628125 24.33203125 3.7928125 24.33203125 4.1328125 C29.28203125 4.1328125 34.23203125 4.1328125 39.33203125 4.1328125 C39.33203125 3.8028125 39.33203125 3.4728125 39.33203125 3.1328125 C34.38203125 3.1328125 29.43203125 3.1328125 24.33203125 3.1328125 Z " fill="#031593" transform="translate(253.66796875,30.8671875)"/>
<path d="M0 0 C6.0546875 -0.1953125 6.0546875 -0.1953125 8 0 C10 2 10 2 10 5 C10.66 5 11.32 5 12 5 C13.98 8.96 15.96 12.92 18 17 C18.66 12.38 19.32 7.76 20 3 C21.32 2.67 22.64 2.34 24 2 C26.47598733 4.47598733 25.1855126 11.10860158 25.1875 14.4375 C25.19974609 15.51322266 25.21199219 16.58894531 25.22460938 17.69726562 C25.22750977 19.23737305 25.22750977 19.23737305 25.23046875 20.80859375 C25.23457764 21.75532959 25.23868652 22.70206543 25.24291992 23.67749023 C25 26 25 26 23 28 C19.68814124 28.44582714 17.1664148 28.68358514 14.20703125 26.94921875 C12.5625 25.625 12.5625 25.625 10 23 C10 22.34 10 21.68 10 21 C9.34 21 8.68 21 8 21 C7.855625 21.969375 7.71125 22.93875 7.5625 23.9375 C7 27 7 27 6 28 C3 28.125 3 28.125 0 28 C-1.7059965 26.2940035 -1.13013541 24.08649836 -1.1328125 21.7578125 C-1.13410156 20.69175781 -1.13539063 19.62570313 -1.13671875 18.52734375 C-1.13285156 17.40457031 -1.12898437 16.28179687 -1.125 15.125 C-1.12886719 14.00996094 -1.13273438 12.89492188 -1.13671875 11.74609375 C-1.13542969 10.67746094 -1.13414062 9.60882813 -1.1328125 8.5078125 C-1.13112061 7.03272217 -1.13112061 7.03272217 -1.12939453 5.52783203 C-1 3 -1 3 0 0 Z " fill="#233696" transform="translate(203,26)"/>
<path d="M0 0 C9.57 0 19.14 0 29 0 C29 0.66 29 1.32 29 2 C22.92972642 4.1583195 17.40629424 4.20852314 11 4 C11 6.31 11 8.62 11 11 C11.33 10.34 11.66 9.68 12 9 C13.31774196 8.60955794 14.65667272 8.29044914 16 8 C16.9075 7.649375 17.815 7.29875 18.75 6.9375 C22.77815458 5.77553233 25.81535064 5.72102338 30 6 C30.66 6.66 31.32 7.32 32 8 C31.34 8.66 30.68 9.32 30 10 C31.485 10.495 31.485 10.495 33 11 C33.08636719 11.69867188 33.17273438 12.39734375 33.26171875 13.1171875 C33.68169658 15.83741089 34.14346347 18.38256349 35 21 C37.38788787 22.62332335 37.38788787 22.62332335 40 23 C40.66 23.66 41.32 24.32 42 25 C34.125 24.125 34.125 24.125 33 23 C29.31714874 23.07593508 25.64229723 23.17605721 21.96484375 23.390625 C15.69614929 23.55531976 12.68429962 22.20480438 8 18 C6.9600559 14.88016769 6.99124535 13.22213621 7.3125 10 C7.43044922 8.700625 7.43044922 8.700625 7.55078125 7.375 C8 5 8 5 10 2 C7.69 2.33 5.38 2.66 3 3 C2.9498877 3.57032959 2.89977539 4.14065918 2.84814453 4.72827148 C2.61680288 7.29899657 2.37109952 9.86814757 2.125 12.4375 C2.04636719 13.33533203 1.96773438 14.23316406 1.88671875 15.15820312 C1.80292969 16.01220703 1.71914063 16.86621094 1.6328125 17.74609375 C1.55949707 18.53685303 1.48618164 19.3276123 1.41064453 20.14233398 C1.27513184 20.75536377 1.13961914 21.36839355 1 22 C0.34 22.33 -0.32 22.66 -1 23 C-0.67 15.41 -0.34 7.82 0 0 Z " fill="#233798" transform="translate(319,32)"/>
<path d="M0 0 C0.33 0 0.66 0 1 0 C1.495 2.97 1.495 2.97 2 6 C2.66 5.34 3.32 4.68 4 4 C4.66 4 5.32 4 6 4 C6 4.99 6 5.98 6 7 C7.98 7.33 9.96 7.66 12 8 C12 8.66 12 9.32 12 10 C11.01 10 10.02 10 9 10 C9.495 11.485 9.495 11.485 10 13 C8.68 13 7.36 13 6 13 C6 16.96 6 20.92 6 25 C-15.24760811 26.99004975 -15.24760811 26.99004975 -22 23 C-24.52959552 19.45856627 -24 17.78182389 -24 13 C-29.28 13 -34.56 13 -40 13 C-40 12.67 -40 12.34 -40 12 C-33.565 11.505 -33.565 11.505 -27 11 C-27 10.34 -27 9.68 -27 9 C-33.00852226 8.79280958 -37.52578585 9.26289292 -43 12 C-43.66 11.67 -44.32 11.34 -45 11 C-45.33 12.65 -45.66 14.3 -46 16 C-46.33 16 -46.66 16 -47 16 C-47.125 9.25 -47.125 9.25 -46 7 C-38.74 7 -31.48 7 -24 7 C-24 5.35 -24 3.7 -24 2 C-22.02 1.67 -20.04 1.34 -18 1 C-18 6.61 -18 12.22 -18 18 C-12.06 18 -6.12 18 0 18 C0 12.06 0 6.12 0 0 Z " fill="#243BA0" transform="translate(376,30)"/>
<path d="M0 0 C0.949319 -0.00315216 1.898638 -0.00630432 2.87672424 -0.009552 C3.91505905 -0.00752777 4.95339386 -0.00550354 6.02319336 -0.00341797 C7.09363388 -0.00437469 8.1640744 -0.00533142 9.26695251 -0.00631714 C11.5477606 -0.00700001 13.82857061 -0.00513832 16.109375 -0.00097656 C19.54618924 0.00429205 22.98286803 -0.00087664 26.41967773 -0.00732422 C38.17027703 -0.01053187 49.83586738 0.15915776 61.55053711 1.12939453 C60.89053711 2.44939453 60.23053711 3.76939453 59.55053711 5.12939453 C43.38053711 5.45939453 27.21053711 5.78939453 10.55053711 6.12939453 C10.55053711 13.05939453 10.55053711 19.98939453 10.55053711 27.12939453 C8.90053711 27.45939453 7.25053711 27.78939453 5.55053711 28.12939453 C4.55053711 27.12939453 4.55053711 27.12939453 4.43701172 25.08813477 C4.44224854 24.21358643 4.44748535 23.33903809 4.45288086 22.43798828 C4.45610352 21.49375 4.45932617 20.54951172 4.46264648 19.57666016 C4.47102539 18.5834375 4.4794043 17.59021484 4.48803711 16.56689453 C4.49254883 15.56980469 4.49706055 14.57271484 4.50170898 13.54541016 C4.51353704 11.07334605 4.53001862 8.60139935 4.55053711 6.12939453 C1.58053711 6.12939453 -1.38946289 6.12939453 -4.44946289 6.12939453 C-4.83165056 4.47324796 -5.16341391 2.80482429 -5.44946289 1.12939453 C-3.85690662 -0.46316174 -2.20669191 0.00209561 0 0 Z " fill="#233699" transform="translate(234.449462890625,25.87060546875)"/>
<path d="M0 0 C42.57 0 85.14 0 129 0 C128.67 0.66 128.34 1.32 128 2 C101.66651493 3.40537513 75.30069739 3.11746308 48.93981934 3.06866455 C42.73071639 3.05829105 36.52160918 3.05383738 30.3125 3.04882812 C18.20832238 3.03821937 6.10416333 3.02123453 -6 3 C-6 2.67 -6 2.34 -6 2 C-4.02 2 -2.04 2 0 2 C0 1.34 0 0.68 0 0 Z " fill="#00005E" transform="translate(36,12)"/>
<path d="M0 0 C0.33 0.99 0.66 1.98 1 3 C-30.74582036 3.88705569 -62.43524614 4.0560059 -94.19000244 3.66339111 C-98.60837194 3.61115824 -103.02681408 3.56815546 -107.44528103 3.52509499 C-111.74931487 3.48231245 -116.05328783 3.43491644 -120.35725594 3.38599777 C-122.38533303 3.3632963 -124.41342362 3.34176683 -126.44152641 3.32149124 C-129.24161123 3.29260805 -132.04155879 3.25773775 -134.84155273 3.22119141 C-136.06220932 3.21020164 -136.06220932 3.21020164 -137.30752563 3.19898987 C-142.27819123 3.12624906 -147.07698625 2.6982877 -152 2 C-152 1.67 -152 1.34 -152 1 C-101.84 0.67 -51.68 0.34 0 0 Z " fill="#000056" transform="translate(176,73)"/>
<path d="M0 0 C0 0.99 0 1.98 0 3 C-2.47896181 3.17033357 -4.95809632 3.33632839 -7.4375 3.5 C-8.12521484 3.54769531 -8.81292969 3.59539063 -9.52148438 3.64453125 C-14.69068781 3.98113054 -19.81982614 4.04082896 -25 4 C-24.99476318 4.62044189 -24.98952637 5.24088379 -24.98413086 5.88012695 C-24.96334534 8.69090767 -24.95033483 11.50167221 -24.9375 14.3125 C-24.92493164 15.77719727 -24.92493164 15.77719727 -24.91210938 17.27148438 C-24.90888672 18.20927734 -24.90566406 19.14707031 -24.90234375 20.11328125 C-24.89710693 20.97735596 -24.89187012 21.84143066 -24.88647461 22.73168945 C-25 25 -25 25 -26 28 C-27.65 28 -29.3 28 -31 28 C-31 20.41 -31 12.82 -31 5 C-33.97 4.67 -36.94 4.34 -40 4 C-40 2.68 -40 1.36 -40 0 C-11.84846857 -1.40027356 -11.84846857 -1.40027356 0 0 Z " fill="#23379B" transform="translate(344,27)"/>
<path d="M0 0 C7.26 0 14.52 0 22 0 C22 1.98 22 3.96 22 6 C16.72 6 11.44 6 6 6 C6 7.65 6 9.3 6 11 C7.60681641 10.98259766 7.60681641 10.98259766 9.24609375 10.96484375 C10.64322743 10.95546701 12.04036299 10.94636669 13.4375 10.9375 C14.14455078 10.92912109 14.85160156 10.92074219 15.58007812 10.91210938 C17.38693559 10.90346412 19.19387603 10.94779989 21 11 C22 12 22 12 22.0625 14.5625 C22.041875 15.366875 22.02125 16.17125 22 17 C6.40731016 17.38927658 6.40731016 17.38927658 1 15 C-0.63356321 10.09931037 -0.05529694 5.14261524 0 0 Z " fill="#233696" transform="translate(255,37)"/>
<path d="M0 0 C0.7734375 -0.00515625 1.546875 -0.0103125 2.34375 -0.015625 C4.5 0.25 4.5 0.25 7.5 2.25 C7.72137393 4.87697064 7.78162025 7.25893964 7.6875 9.875 C7.67396484 10.58140625 7.66042969 11.2878125 7.64648438 12.015625 C7.6111104 13.76074128 7.55730221 15.50546608 7.5 17.25 C4.89820337 18.55089831 2.9030812 18.41840078 0 18.4375 C-0.9796875 18.45167969 -1.959375 18.46585938 -2.96875 18.48046875 C-5.5 18.25 -5.5 18.25 -7.5 16.25 C-7.80078125 13.0625 -7.80078125 13.0625 -7.8125 9.25 C-7.82925781 7.991875 -7.84601563 6.73375 -7.86328125 5.4375 C-7.74339844 4.385625 -7.62351563 3.33375 -7.5 2.25 C-4.377998 0.16866533 -3.56733011 -0.0237822 0 0 Z " fill="#1B2989" transform="translate(169.5,30.75)"/>
<path d="M0 0 C2.375 -0.125 2.375 -0.125 5 0 C7.68487165 2.68487165 7.25769449 4.06476981 7.265625 7.8125 C7.26820313 8.97007813 7.27078125 10.12765625 7.2734375 11.3203125 C7.26570313 12.53460938 7.25796875 13.74890625 7.25 15 C7.25773437 16.21429688 7.26546875 17.42859375 7.2734375 18.6796875 C7.27085937 19.83726563 7.26828125 20.99484375 7.265625 22.1875 C7.26336914 23.25355469 7.26111328 24.31960937 7.25878906 25.41796875 C7 28 7 28 5 30 C2.375 30.125 2.375 30.125 0 30 C-1.19287411 26.12315913 -2 23.08378077 -2 19 C-3.65 18.67 -5.3 18.34 -7 18 C-5.68 17.67 -4.36 17.34 -3 17 C-3.66 16.67 -4.32 16.34 -5 16 C-5 15.34 -5 14.68 -5 14 C-4.34 14 -3.68 14 -3 14 C-3 13.34 -3 12.68 -3 12 C-2.34 11.67 -1.68 11.34 -1 11 C-0.5316735 8.41394668 -0.5316735 8.41394668 -0.375 5.4375 C-0.30023438 4.42558594 -0.22546875 3.41367187 -0.1484375 2.37109375 C-0.09945313 1.58863281 -0.05046875 0.80617188 0 0 Z " fill="#233595" transform="translate(394,25)"/>
<path d="M0 0 C1.65 0 3.3 0 5 0 C5 1.32 5 2.64 5 4 C6.69769531 3.98259766 6.69769531 3.98259766 8.4296875 3.96484375 C9.91145669 3.95546546 11.39322765 3.9463653 12.875 3.9375 C13.62136719 3.92912109 14.36773437 3.92074219 15.13671875 3.91210938 C20.7734375 3.88671875 20.7734375 3.88671875 23 5 C23 6.65 23 8.3 23 10 C14.585 10.495 14.585 10.495 6 11 C5.67 16.28 5.34 21.56 5 27 C6.65 27 8.3 27 10 27 C10 23.37 10 19.74 10 16 C12.64 16 15.28 16 18 16 C18.83848804 17.45537568 19.67063934 18.91440373 20.5 20.375 C20.9640625 21.18710937 21.428125 21.99921875 21.90625 22.8359375 C23 25 23 25 23 27 C24.98 27 26.96 27 29 27 C29 27.33 29 27.66 29 28 C25.875 28.625 25.875 28.625 22 28 C20.17490184 25.53874984 18.86935608 23.05062774 17.5546875 20.28515625 C15.97366415 17.38769933 15.97366415 17.38769933 11 17 C11 20.63 11 24.26 11 28 C8.66705225 28.04241723 6.33297433 28.04092937 4 28 C2.18884044 26.18884044 2.61800552 23.38721773 2.4375 20.9375 C2.35371094 19.83277344 2.26992187 18.72804688 2.18359375 17.58984375 C2.09271484 16.30787109 2.09271484 16.30787109 2 15 C0.68 15.33 -0.64 15.66 -2 16 C-1.51015625 15.44570313 -1.0203125 14.89140625 -0.515625 14.3203125 C1.27962982 11.57190692 1.34685017 10.1194807 1.25 6.875 C1.23453125 6.00617187 1.2190625 5.13734375 1.203125 4.2421875 C1.1341831 1.96445628 1.1341831 1.96445628 0 0 Z " fill="#040863" transform="translate(127,27)"/>
<path d="M0 0 C2.0625 0.4375 2.0625 0.4375 4 1 C4.05786668 4.79160297 4.09355054 8.58309311 4.125 12.375 C4.14175781 13.45523438 4.15851563 14.53546875 4.17578125 15.6484375 C4.18222656 16.6796875 4.18867188 17.7109375 4.1953125 18.7734375 C4.20578613 19.72653809 4.21625977 20.67963867 4.22705078 21.66162109 C4 24 4 24 2 26 C-1.625 26.125 -1.625 26.125 -5 26 C-6.98 22.04 -8.96 18.08 -11 14 C-10.34 14 -9.68 14 -9 14 C-8.67 12.68 -8.34 11.36 -8 10 C-7.34 10 -6.68 10 -6 10 C-4.375 12.5 -4.375 12.5 -3 15 C-2.86722656 14.00097656 -2.73445312 13.00195312 -2.59765625 11.97265625 C-2.42105469 10.68230469 -2.24445313 9.39195313 -2.0625 8.0625 C-1.88847656 6.77472656 -1.71445313 5.48695312 -1.53515625 4.16015625 C-1 1 -1 1 0 0 Z " fill="#253897" transform="translate(224,28)"/>
<path d="M0 0 C0.33 0 0.66 0 1 0 C1 2.31 1 4.62 1 7 C-0.65 7.33 -2.3 7.66 -4 8 C-4 9.65 -4 11.3 -4 13 C-5.875 14.0625 -5.875 14.0625 -8 15 C-8.66 14.67 -9.32 14.34 -10 14 C-10 13.34 -10 12.68 -10 12 C-11.65 12 -13.3 12 -15 12 C-15.33 15.96 -15.66 19.92 -16 24 C-21 23 -21 23 -22 22 C-22.09942806 19.87691847 -22.12969184 17.75040328 -22.125 15.625 C-22.12757813 14.46226563 -22.13015625 13.29953125 -22.1328125 12.1015625 C-22 9 -22 9 -21 6 C-19.81921875 6.06960937 -18.6384375 6.13921875 -17.421875 6.2109375 C-15.86464027 6.26722309 -14.30734396 6.3218224 -12.75 6.375 C-11.97269531 6.42527344 -11.19539063 6.47554687 -10.39453125 6.52734375 C-8.11489921 6.58579585 -6.21076572 6.57012117 -4 6 C-1.45813043 3.12763931 -1.45813043 3.12763931 0 0 Z " fill="#233896" transform="translate(300,31)"/>
<path d="M0 0 C0.33 0 0.66 0 1 0 C1.01981934 0.57967529 1.03963867 1.15935059 1.06005859 1.7565918 C1.15572601 4.40065937 1.26523453 7.0439817 1.375 9.6875 C1.4059375 10.59951172 1.436875 11.51152344 1.46875 12.45117188 C1.69680308 18.96826572 1.69680308 18.96826572 4 25 C7.04213267 26.52106634 10.28047572 26.37429338 13.625 26.5625 C14.33140625 26.60568359 15.0378125 26.64886719 15.765625 26.69335938 C17.51018537 26.79944751 19.25506697 26.90022889 21 27 C21 25.35 21 23.7 21 22 C17.04 22 13.08 22 9 22 C9 21.67 9 21.34 9 21 C13.29 21 17.58 21 22 21 C22 17.37 22 13.74 22 10 C22.99 10.33 23.98 10.66 25 11 C24.67 16.28 24.34 21.56 24 27 C25.32 26.67 26.64 26.34 28 26 C28.33 22.7 28.66 19.4 29 16 C33.29 16 37.58 16 42 16 C42 16.33 42 16.66 42 17 C38.04 17 34.08 17 30 17 C30 20.63 30 24.26 30 28 C25.91662269 28.02694311 21.83342276 28.04681177 17.75 28.0625 C16.01169922 28.07506836 16.01169922 28.07506836 14.23828125 28.08789062 C13.12324219 28.09111328 12.00820312 28.09433594 10.859375 28.09765625 C9.31975098 28.10551147 9.31975098 28.10551147 7.74902344 28.11352539 C5.30229561 28.01248379 3.30741241 27.79877015 1 27 C-2.03472138 23.34413681 -3.06667934 19.37912396 -2.83984375 14.6875 C-2.33888072 11.42196319 -1.72230483 8.22323314 -1 5 C-0.66450189 3.33376775 -0.33036404 1.66725778 0 0 Z " fill="#03085A" transform="translate(83,27)"/>
<path d="M0 0 C9.57 0 19.14 0 29 0 C29 0.66 29 1.32 29 2 C22.92972642 4.1583195 17.40629424 4.20852314 11 4 C10.95101563 4.62648438 10.90203125 5.25296875 10.8515625 5.8984375 C10.77679688 6.71570312 10.70203125 7.53296875 10.625 8.375 C10.55539062 9.18710937 10.48578125 9.99921875 10.4140625 10.8359375 C10 13 10 13 8 15 C7.94583812 13.39620659 7.90713362 11.79188594 7.875 10.1875 C7.85179687 9.29417969 7.82859375 8.40085937 7.8046875 7.48046875 C8 5 8 5 10 2 C7.69 2.33 5.38 2.66 3 3 C2.9498877 3.57032959 2.89977539 4.14065918 2.84814453 4.72827148 C2.61680288 7.29899657 2.37109952 9.86814757 2.125 12.4375 C2.04636719 13.33533203 1.96773438 14.23316406 1.88671875 15.15820312 C1.80292969 16.01220703 1.71914063 16.86621094 1.6328125 17.74609375 C1.55949707 18.53685303 1.48618164 19.3276123 1.41064453 20.14233398 C1.27513184 20.75536377 1.13961914 21.36839355 1 22 C0.34 22.33 -0.32 22.66 -1 23 C-0.67 15.41 -0.34 7.82 0 0 Z " fill="#020289" transform="translate(319,32)"/>
<path d="M0 0 C0.83265381 0.00523682 1.66530762 0.01047363 2.52319336 0.01586914 C3.42231445 0.0190918 4.32143555 0.02231445 5.24780273 0.02563477 C6.66609375 0.03820312 6.66609375 0.03820312 8.11303711 0.05102539 C9.06243164 0.05553711 10.01182617 0.06004883 10.98999023 0.06469727 C13.34356776 0.07652429 15.69702188 0.09300514 18.05053711 0.11352539 C18.38053711 0.77352539 18.71053711 1.43352539 19.05053711 2.11352539 C12.45053711 1.78352539 5.85053711 1.45352539 -0.94946289 1.11352539 C-0.94946289 2.76352539 -0.94946289 4.41352539 -0.94946289 6.11352539 C0.18233398 6.09032227 1.31413086 6.06711914 2.48022461 6.04321289 C3.96198886 6.02445638 5.44376023 6.00625605 6.92553711 5.98852539 C7.6719043 5.97176758 8.41827148 5.95500977 9.18725586 5.93774414 C11.14248172 5.92012949 13.09795732 6.0103235 15.05053711 6.11352539 C15.71053711 6.77352539 16.37053711 7.43352539 17.05053711 8.11352539 C16.67553711 10.23852539 16.67553711 10.23852539 16.05053711 12.11352539 C13.44526606 12.22145377 10.844454 12.30077417 8.23803711 12.36352539 C7.50004883 12.39704102 6.76206055 12.43055664 6.00170898 12.46508789 C0.553895 12.56369086 0.553895 12.56369086 -1.94555664 10.32836914 C-3.37268262 7.17980716 -3.20661041 4.52072999 -2.94946289 1.11352539 C-1.94946289 0.11352539 -1.94946289 0.11352539 0 0 Z " fill="#101C77" transform="translate(107.949462890625,24.886474609375)"/>
<path d="M0 0 C1.10272751 0.00424484 2.20545502 0.00848969 3.34159851 0.01286316 C6.85688898 0.0296297 10.37160211 0.06727924 13.88671875 0.10546875 C16.27277817 0.12051816 18.65884659 0.13420611 21.04492188 0.14648438 C26.88821717 0.17952663 32.73117671 0.22970639 38.57421875 0.29296875 C38.24421875 0.95296875 37.91421875 1.61296875 37.57421875 2.29296875 C22.39421875 2.29296875 7.21421875 2.29296875 -8.42578125 2.29296875 C-8.75578125 9.55296875 -9.08578125 16.81296875 -9.42578125 24.29296875 C-9.75578125 24.29296875 -10.08578125 24.29296875 -10.42578125 24.29296875 C-10.75578125 17.69296875 -11.08578125 11.09296875 -11.42578125 4.29296875 C-12.41578125 4.29296875 -13.40578125 4.29296875 -14.42578125 4.29296875 C-14.75578125 6.27296875 -15.08578125 8.25296875 -15.42578125 10.29296875 C-15.75578125 10.29296875 -16.08578125 10.29296875 -16.42578125 10.29296875 C-16.73828125 6.98046875 -16.73828125 6.98046875 -16.42578125 3.29296875 C-11.89339812 -1.00528722 -5.83110129 -0.08454856 0 0 Z " fill="#091171" transform="translate(238.42578125,24.70703125)"/>
<path d="M0 0 C5.61 0 11.22 0 17 0 C17.226875 1.60875 17.45375 3.2175 17.6875 4.875 C18.16320627 7.60547873 18.16320627 7.60547873 19 10 C21.38788787 11.62332335 21.38788787 11.62332335 24 12 C24.66 12.66 25.32 13.32 26 14 C18.125 13.125 18.125 13.125 17 12 C15.65732587 11.91368126 14.31025678 11.89293527 12.96484375 11.90234375 C12.15595703 11.90556641 11.34707031 11.90878906 10.51367188 11.91210938 C9.2384668 11.92467773 9.2384668 11.92467773 7.9375 11.9375 C7.08349609 11.94201172 6.22949219 11.94652344 5.34960938 11.95117188 C3.23304337 11.96299627 1.11651315 11.98093231 -1 12 C-1 11.67 -1 11.34 -1 11 C4.61 11 10.22 11 16 11 C16 9.02 16 7.04 16 5 C11.05 5 6.1 5 1 5 C0.67 3.35 0.34 1.7 0 0 Z " fill="#0328A7" transform="translate(335,43)"/>
<path d="M0 0 C0.66 0 1.32 0 2 0 C1.98839844 1.13179687 1.97679687 2.26359375 1.96484375 3.4296875 C1.95546546 4.91145669 1.9463653 6.39322765 1.9375 7.875 C1.92912109 8.62136719 1.92074219 9.36773437 1.91210938 10.13671875 C1.79311916 14.19845578 1.79311916 14.19845578 3 18 C-0.29159316 18.05790353 -3.58305603 18.09356261 -6.875 18.125 C-8.28072266 18.15013672 -8.28072266 18.15013672 -9.71484375 18.17578125 C-11.05869141 18.18544922 -11.05869141 18.18544922 -12.4296875 18.1953125 C-13.25710449 18.20578613 -14.08452148 18.21625977 -14.93701172 18.22705078 C-17 18 -17 18 -19 16 C-12.73 16.33 -6.46 16.66 0 17 C-0.33 15.35 -0.66 13.7 -1 12 C-5.95 11.67 -10.9 11.34 -16 11 C-16 9.35 -16 7.7 -16 6 C-10.72 6 -5.44 6 0 6 C0 4.02 0 2.04 0 0 Z " fill="#000182" transform="translate(277,37)"/>
<path d="M0 0 C6.75 -0.125 6.75 -0.125 9 1 C8.67 3.97 8.34 6.94 8 10 C0.74 10 -6.52 10 -14 10 C-14 9.67 -14 9.34 -14 9 C-5.09 8.01 -5.09 8.01 4 7 C4 6.34 4 5.68 4 5 C-5.57 5 -15.14 5 -25 5 C-25 4.67 -25 4.34 -25 4 C-22.33349537 3.83031334 -19.66684474 3.66418179 -17 3.5 C-16.25621094 3.45230469 -15.51242187 3.40460937 -14.74609375 3.35546875 C-9.82037776 3.05564256 -4.93485224 2.95513771 0 3 C0 2.01 0 1.02 0 0 Z " fill="#1D309A" transform="translate(344,27)"/>
<path d="M0 0 C0.66 0 1.32 0 2 0 C2.33 7.26 2.66 14.52 3 22 C1.68 21.34 0.36 20.68 -1 20 C-1.75 16.875 -1.75 16.875 -2 14 C-2.53625 15.093125 -3.0725 16.18625 -3.625 17.3125 C-6.27361595 22.61925929 -9.13626615 27.80709595 -12 33 C-13.33544702 28.99365894 -11.90397552 26.79625333 -10.25390625 23.14453125 C-9.96394272 22.48289474 -9.67397919 21.82125824 -9.37522888 21.13957214 C-8.44666012 19.02644068 -7.50480057 16.91953878 -6.5625 14.8125 C-5.93075657 13.38124926 -5.29988615 11.94961285 -4.66992188 10.51757812 C-3.12337731 7.00716251 -1.56488669 3.50227517 0 0 Z " fill="#040C74" transform="translate(193,33)"/>
<path d="M0 0 C0.99 0 1.98 0 3 0 C3.33 0.66 3.66 1.32 4 2 C5.32 2 6.64 2 8 2 C7.83886719 2.50660156 7.67773438 3.01320313 7.51171875 3.53515625 C6.82139462 6.86030528 6.82932032 10.04316 6.8125 13.4375 C6.79832031 14.73558594 6.78414062 16.03367187 6.76953125 17.37109375 C6.98658443 20.78876161 7.32854934 23.02914916 9 26 C12.46712111 27.15570704 15.5414956 27.32835293 19.1875 27.5625 C21.09595703 27.68818359 21.09595703 27.68818359 23.04296875 27.81640625 C24.01878906 27.87699219 24.99460938 27.93757813 26 28 C26 28.33 26 28.66 26 29 C23.39555652 29.05394705 20.79223002 29.09364469 18.1875 29.125 C17.44951172 29.14175781 16.71152344 29.15851562 15.95117188 29.17578125 C12.08753574 29.21074628 10.29096332 29.19397555 7 27 C6.34 27.33 5.68 27.66 5 28 C4.15885829 26.56705502 3.32734313 25.12845595 2.5 23.6875 C2.0359375 22.88699219 1.571875 22.08648437 1.09375 21.26171875 C0 19 0 19 0 16 C0.66 16 1.32 16 2 16 C3.54798433 11.16254898 3.83408066 6.63340795 1.5 2.0625 C1.005 1.381875 0.51 0.70125 0 0 Z " fill="#070D69" transform="translate(151,26)"/>
<path d="M0 0 C0.33 0 0.66 0 1 0 C1 3.3 1 6.6 1 10 C0.01 10.33 -0.98 10.66 -2 11 C-2 11.66 -2 12.32 -2 13 C-2.33 13.33 -2.66 13.66 -3 14 C-2.505 14.515625 -2.01 15.03125 -1.5 15.5625 C0.49649241 18.80680017 0.21564385 21.26217334 0 25 C-0.66 24.67 -1.32 24.34 -2 24 C-2.625 21.9375 -2.625 21.9375 -3 20 C-4.32 20 -5.64 20 -7 20 C-7.99 22.64 -8.98 25.28 -10 28 C-10.33 28 -10.66 28 -11 28 C-11 24.37 -11 20.74 -11 17 C-10.01 16.67 -9.02 16.34 -8 16 C-8 15.34 -8 14.68 -8 14 C-7.01 14 -6.02 14 -5 14 C-5 13.34 -5 12.68 -5 12 C-7.31 12 -9.62 12 -12 12 C-10.70525365 9.41050731 -9.67336607 9.03964236 -7 8 C-4.25 7.875 -4.25 7.875 -2 8 C-1.34 5.36 -0.68 2.72 0 0 Z " fill="#1A329B" transform="translate(393,26)"/>
<path d="M0 0 C8.25 0 16.5 0 25 0 C25.66 2.97 26.32 5.94 27 9 C27.66 9.33 28.32 9.66 29 10 C28.2575 10.144375 27.515 10.28875 26.75 10.4375 C24.47972261 10.90187492 22.24240521 11.41863569 20 12 C17 6.25 17 6.25 17 4 C12.939337 2.64644567 8.97139006 2.6214004 4.71484375 2.37890625 C2 2 2 2 0 0 Z " fill="#132083" transform="translate(357,25)"/>
<path d="M0 0 C0.74958984 0.00451172 1.49917969 0.00902344 2.27148438 0.01367188 C4.11852383 0.02543646 5.96552213 0.04337135 7.8125 0.0625 C7.8125 1.3825 7.8125 2.7025 7.8125 4.0625 C8.8025 4.3925 9.7925 4.7225 10.8125 5.0625 C10.8125 5.3925 10.8125 5.7225 10.8125 6.0625 C-4.82309578 8.33218326 -4.82309578 8.33218326 -10.48046875 4.515625 C-11.04378906 4.03609375 -11.60710937 3.5565625 -12.1875 3.0625 C-9.97894074 -1.35461851 -4.30476406 -0.04887505 0 0 Z " fill="#213593" transform="translate(366.1875,48.9375)"/>
<path d="M0 0 C6.92334988 -0.07595711 13.84659263 -0.12856051 20.77026367 -0.16479492 C23.12642431 -0.17989747 25.48255677 -0.20038091 27.83862305 -0.22631836 C31.22191312 -0.26263656 34.60483208 -0.27971167 37.98828125 -0.29296875 C39.57277824 -0.31619453 39.57277824 -0.31619453 41.18928528 -0.33988953 C42.66047066 -0.34022942 42.66047066 -0.34022942 44.16137695 -0.34057617 C45.45710381 -0.35056892 45.45710381 -0.35056892 46.77900696 -0.36076355 C49.45182678 0.07339178 50.32340113 0.9298271 52 3 C51.34 3.33 50.68 3.66 50 4 C49.34 3.67 48.68 3.34 48 3 C45.01517078 2.75404764 42.05300145 2.57102656 39.0625 2.4375 C38.1547583 2.3950415 37.2470166 2.35258301 36.31176758 2.30883789 C24.21364399 1.80496062 12.1057047 1.91045057 0 2 C0 2.66 0 3.32 0 4 C-0.66 4 -1.32 4 -2 4 C-1.34 2.68 -0.68 1.36 0 0 Z " fill="#0A1377" transform="translate(303,25)"/>
<path d="M0 0 C0.66 0 1.32 0 2 0 C3.19942605 2.59925496 4.38472821 5.20345507 5.5625 7.8125 C5.90474609 8.55048828 6.24699219 9.28847656 6.59960938 10.04882812 C6.91865234 10.76103516 7.23769531 11.47324219 7.56640625 12.20703125 C7.86490479 12.8616333 8.16340332 13.51623535 8.47094727 14.19067383 C9 16 9 16 8 19 C7.01 18.34 6.02 17.68 5 17 C2.24612373 16.97522641 2.24612373 16.97522641 -0.6875 17.375 C-1.68136719 17.48585938 -2.67523438 17.59671875 -3.69921875 17.7109375 C-4.45847656 17.80632813 -5.21773437 17.90171875 -6 18 C-6 17.01 -6 16.02 -6 15 C-3.03 15 -0.06 15 3 15 C2.29660434 12.49034386 2.29660434 12.49034386 1 10 C-0.32 9.67 -1.64 9.34 -3 9 C-2.01 6.03 -1.02 3.06 0 0 Z " fill="#141D7A" transform="translate(69,34)"/>
<path d="M0 0 C1.16208984 0.08507812 1.16208984 0.08507812 2.34765625 0.171875 C4.23265095 0.31150424 6.11648861 0.46661381 8 0.625 C8.5625 2.5625 8.5625 2.5625 9 4.625 C6.87903933 6.74596067 2.30203684 5.81019525 -0.625 5.8125 C-1.81802734 5.83086914 -1.81802734 5.83086914 -3.03515625 5.84960938 C-8.08141572 5.86203859 -12.21799706 5.24677848 -17 3.625 C-17 2.965 -17 2.305 -17 1.625 C-11.03819344 -0.14999241 -6.17205915 -0.53484048 0 0 Z M-8 2.625 C-8 2.955 -8 3.285 -8 3.625 C-3.05 3.625 1.9 3.625 7 3.625 C7 3.295 7 2.965 7 2.625 C2.05 2.625 -2.9 2.625 -8 2.625 Z " fill="#000084" transform="translate(286,31.375)"/>
<path d="M0 0 C6.27 0 12.54 0 19 0 C19 1.65 19 3.3 19 5 C12.73 5 6.46 5 0 5 C0 3.35 0 1.7 0 0 Z " fill="#17257D" transform="translate(131,32)"/>
<path d="M0 0 C3.10408807 -0.05807043 6.2080364 -0.09361914 9.3125 -0.125 C10.19357422 -0.14175781 11.07464844 -0.15851562 11.98242188 -0.17578125 C12.82998047 -0.18222656 13.67753906 -0.18867188 14.55078125 -0.1953125 C15.72120972 -0.21102295 15.72120972 -0.21102295 16.9152832 -0.22705078 C19 0 19 0 22 2 C21 4 21 4 19 5 C19.33 5.66 19.66 6.32 20 7 C19.06553465 9.03144641 18.06775224 11.03533587 17 13 C16.34 13 15.68 13 15 13 C15 11.35 15 9.7 15 8 C10.05 7.67 5.1 7.34 0 7 C0 6.67 0 6.34 0 6 C4.95 5.67 9.9 5.34 15 5 C15 4.34 15 3.68 15 3 C13.50146484 2.92652344 13.50146484 2.92652344 11.97265625 2.8515625 C10.03712891 2.73941406 10.03712891 2.73941406 8.0625 2.625 C6.13083984 2.52058594 6.13083984 2.52058594 4.16015625 2.4140625 C2.59587891 2.20910156 2.59587891 2.20910156 1 2 C0.67 1.34 0.34 0.68 0 0 Z " fill="#152388" transform="translate(279,25)"/>
<path d="M0 0 C1 2 1 2 0.19555664 4.43017578 C-0.22862549 5.4251709 -0.65280762 6.42016602 -1.08984375 7.4453125 C-1.54423828 8.52167969 -1.99863281 9.59804688 -2.46679688 10.70703125 C-2.95212891 11.83496094 -3.43746094 12.96289062 -3.9375 14.125 C-4.65969727 15.82849609 -4.65969727 15.82849609 -5.39648438 17.56640625 C-6.59075486 20.3806278 -7.79219124 23.19156835 -9 26 C-7.02 26 -5.04 26 -3 26 C-3 26.33 -3 26.66 -3 27 C-8.28 27 -13.56 27 -19 27 C-19 26.67 -19 26.34 -19 26 C-18.23300781 25.96003906 -17.46601562 25.92007813 -16.67578125 25.87890625 C-13.73722075 25.2420857 -13.73722075 25.2420857 -12.41796875 22.27734375 C-12.01191406 21.17519531 -11.60585938 20.07304688 -11.1875 18.9375 C-10.76855469 17.83277344 -10.34960938 16.72804688 -9.91796875 15.58984375 C-9.61503906 14.73519531 -9.31210937 13.88054688 -9 13 C-8.34 14.32 -7.68 15.64 -7 17 C-6.773125 16.05125 -6.54625 15.1025 -6.3125 14.125 C-4.89994419 9.10372496 -2.42276633 4.59585827 0 0 Z " fill="#050A69" transform="translate(65,28)"/>
<path d="M0 0 C2.05078125 0.03255208 4.1015625 0.06510417 6.15234375 0.09765625 C6.48234375 0.75765625 6.81234375 1.41765625 7.15234375 2.09765625 C4.51234375 2.42765625 1.87234375 2.75765625 -0.84765625 3.09765625 C-0.70716107 4.57733949 -0.56010799 6.05640141 -0.41015625 7.53515625 C-0.28833984 8.77072266 -0.28833984 8.77072266 -0.1640625 10.03125 C-0.0583481 12.0842765 -0.0583481 12.0842765 1.15234375 13.09765625 C2.81663426 13.19589562 4.48516306 13.22739256 6.15234375 13.22265625 C7.05984375 13.22523437 7.96734375 13.2278125 8.90234375 13.23046875 C11.12200986 13.34939404 11.12200986 13.34939404 12.15234375 12.09765625 C12.51995106 9.76947661 12.85475956 7.43581775 13.15234375 5.09765625 C13.48234375 5.09765625 13.81234375 5.09765625 14.15234375 5.09765625 C14.27734375 12.72265625 14.27734375 12.72265625 13.15234375 16.09765625 C7.87234375 16.09765625 2.59234375 16.09765625 -2.84765625 16.09765625 C-2.86828125 13.64328125 -2.88890625 11.18890625 -2.91015625 8.66015625 C-2.91926025 7.88615479 -2.92836426 7.11215332 -2.93774414 6.31469727 C-2.94490538 4.57543908 -2.89790327 2.83620321 -2.84765625 1.09765625 C-1.84765625 0.09765625 -1.84765625 0.09765625 0 0 Z " fill="#0325AF" transform="translate(360.84765625,31.90234375)"/>
<path d="M0 0 C1.051875 -0.02126953 1.051875 -0.02126953 2.125 -0.04296875 C4 0.1875 4 0.1875 6 2.1875 C5.01 2.1875 4.02 2.1875 3 2.1875 C3 2.8475 3 3.5075 3 4.1875 C1.02 4.1875 -0.96 4.1875 -3 4.1875 C-2.94779297 5.88519531 -2.94779297 5.88519531 -2.89453125 7.6171875 C-2.86639664 9.09894353 -2.83909613 10.58071556 -2.8125 12.0625 C-2.77479492 13.18205078 -2.77479492 13.18205078 -2.73632812 14.32421875 C-2.70703125 16.4921875 -2.70703125 16.4921875 -3 20.1875 C-3.99 20.8475 -4.98 21.5075 -6 22.1875 C-6 15.2575 -6 8.3275 -6 1.1875 C-3.77109005 0.07304502 -2.46944894 0.02269714 0 0 Z " fill="#051491" transform="translate(251,30.8125)"/>
<path d="M0 0 C0.66 0.33 1.32 0.66 2 1 C2 1.99 2 2.98 2 4 C3.94603274 4.59070014 3.94603274 4.59070014 6 5 C6.33 4.67 6.66 4.34 7 4 C8.68608966 3.92794489 10.37500659 3.91613932 12.0625 3.9375 C12.98160156 3.94652344 13.90070313 3.95554688 14.84765625 3.96484375 C15.55792969 3.97644531 16.26820313 3.98804688 17 4 C17 4.66 17 5.32 17 6 C17.66 6 18.32 6 19 6 C19.33 6.99 19.66 7.98 20 9 C17.43635517 9.10845031 14.87733721 9.18749744 12.3125 9.25 C11.59126953 9.28351562 10.87003906 9.31703125 10.12695312 9.3515625 C6.26270336 9.4221424 4.41925648 9.25919687 1.04296875 7.171875 C-1 5 -1 5 -2 2 C-1.34 2 -0.68 2 0 2 C0 1.34 0 0.68 0 0 Z " fill="#263790" transform="translate(328,45)"/>
<path d="M0 0 C2.91121708 2.91121708 4.67418635 5.53275902 6.75 9.0625 C7.38421875 10.12597656 8.0184375 11.18945312 8.671875 12.28515625 C9.11015625 13.18105469 9.5484375 14.07695313 10 15 C9.67 15.66 9.34 16.32 9 17 C7 15.625 7 15.625 5 14 C5 13.34 5 12.68 5 12 C4.34 12 3.68 12 3 12 C2.87625 12.969375 2.7525 13.93875 2.625 14.9375 C2.41875 15.948125 2.2125 16.95875 2 18 C1.34 18.33 0.68 18.66 0 19 C0 12.73 0 6.46 0 0 Z " fill="#060F87" transform="translate(208,35)"/>
<path d="M0 0 C0.66 0.33 1.32 0.66 2 1 C2.05783842 5.29161047 2.0935412 9.58312145 2.125 13.875 C2.14175781 15.09832031 2.15851563 16.32164063 2.17578125 17.58203125 C2.18222656 18.74863281 2.18867188 19.91523437 2.1953125 21.1171875 C2.20578613 22.19597168 2.21625977 23.27475586 2.22705078 24.38623047 C2 27 2 27 0 29 C-2.625 29.125 -2.625 29.125 -5 29 C-5.33 27.68 -5.66 26.36 -6 25 C-4.35 24.67 -2.7 24.34 -1 24 C-0.67 16.08 -0.34 8.16 0 0 Z " fill="#0B1679" transform="translate(399,26)"/>
<path d="M0 0 C3.83225427 -0.08912219 7.26562152 0.12132271 11 1 C10.39542969 1.69738281 9.79085937 2.39476562 9.16796875 3.11328125 C6.94533513 6.072788 5.66449163 8.75420895 4.3125 12.1875 C3.89613281 13.23292969 3.47976562 14.27835938 3.05078125 15.35546875 C2.70402344 16.22816406 2.35726562 17.10085937 2 18 C1.67 18.66 1.34 19.32 1 20 C0.34 19.67 -0.32 19.34 -1 19 C0.16651426 13.07136283 1.75519358 7.61201606 4 2 C2.68 1.34 1.36 0.68 0 0 Z " fill="#121F88" transform="translate(57,25)"/>
<path d="M0 0 C0.66 0 1.32 0 2 0 C1.98839844 1.13179687 1.97679687 2.26359375 1.96484375 3.4296875 C1.95546546 4.91145669 1.9463653 6.39322765 1.9375 7.875 C1.92912109 8.62136719 1.92074219 9.36773437 1.91210938 10.13671875 C1.79311916 14.19845578 1.79311916 14.19845578 3 18 C-0.29159316 18.05790353 -3.58305603 18.09356261 -6.875 18.125 C-8.28072266 18.15013672 -8.28072266 18.15013672 -9.71484375 18.17578125 C-11.05869141 18.18544922 -11.05869141 18.18544922 -12.4296875 18.1953125 C-13.25710449 18.20578613 -14.08452148 18.21625977 -14.93701172 18.22705078 C-17 18 -17 18 -19 16 C-12.73 16.33 -6.46 16.66 0 17 C-0.85010335 12.03477739 -0.85010335 12.03477739 -4 9 C-3.34 8.01 -2.68 7.02 -2 6 C-1.34 6 -0.68 6 0 6 C0 4.02 0 2.04 0 0 Z " fill="#071179" transform="translate(277,37)"/>
<path d="M0 0 C2.62538284 0.14053872 5.25017427 0.28718947 7.875 0.4375 C8.99455078 0.49647461 8.99455078 0.49647461 10.13671875 0.55664062 C15.7734375 0.88671875 15.7734375 0.88671875 18 2 C18 2.99 18 3.98 18 5 C12.72 4.67 7.44 4.34 2 4 C2 3.34 2 2.68 2 2 C1.34 2 0.68 2 0 2 C0 1.34 0 0.68 0 0 Z " fill="#213693" transform="translate(355,26)"/>
<path d="M0 0 C0.99 0.33 1.98 0.66 3 1 C2.67 5.62 2.34 10.24 2 15 C0.68 15.33 -0.64 15.66 -2 16 C-2.05384521 13.70858714 -2.09272087 11.41681812 -2.125 9.125 C-2.14820313 7.84882812 -2.17140625 6.57265625 -2.1953125 5.2578125 C-2 2 -2 2 0 0 Z " fill="#263892" transform="translate(355,31)"/>
<path d="M0 0 C0.99 0 1.98 0 3 0 C3.33 0.66 3.66 1.32 4 2 C5.32 2 6.64 2 8 2 C7.84660156 2.51046875 7.69320312 3.0209375 7.53515625 3.546875 C6.83094597 6.7749338 6.65111796 9.95418001 6.4375 13.25 C6.35371094 14.51328125 6.26992187 15.7765625 6.18359375 17.078125 C6.12300781 18.04234375 6.06242188 19.0065625 6 20 C5.67 20 5.34 20 5 20 C5 18.35 5 16.7 5 15 C4.34 15 3.68 15 3 15 C2.67 16.98 2.34 18.96 2 21 C1.34 20.34 0.68 19.68 0 19 C0 18.01 0 17.02 0 16 C0.66 16 1.32 16 2 16 C3.54798433 11.16254898 3.83408066 6.63340795 1.5 2.0625 C1.005 1.381875 0.51 0.70125 0 0 Z " fill="#030757" transform="translate(151,26)"/>
<path d="M0 0 C0.33 0 0.66 0 1 0 C1.33 2.31 1.66 4.62 2 7 C2.99 6.01 3.98 5.02 5 4 C6.50011501 6.9168903 7.11957165 8.42871324 6.4375 11.6875 C5 14 5 14 0 16 C0 10.72 0 5.44 0 0 Z " fill="#2A3B9E" transform="translate(183,33)"/>
<path d="M0 0 C3.3 0 6.6 0 10 0 C10 7.26 10 14.52 10 22 C9.67 22 9.34 22 9 22 C8.93941406 20.96359375 8.87882812 19.9271875 8.81640625 18.859375 C8.73196629 17.48957127 8.64732003 16.11978025 8.5625 14.75 C8.52318359 14.06808594 8.48386719 13.38617188 8.44335938 12.68359375 C8.23333528 9.35551959 7.98065998 6.19744598 7 3 C5.35 2.67 3.7 2.34 2 2 C1.67 3.98 1.34 5.96 1 8 C0.67 8 0.34 8 0 8 C0 5.36 0 2.72 0 0 Z " fill="#09187F" transform="translate(303,32)"/>
<path d="M0 0 C1.65 0 3.3 0 5 0 C8.1889511 5.16830006 10.26017005 10.18738629 12 16 C13.65 14.68 15.3 13.36 17 12 C16.01 14.97 15.02 17.94 14 21 C11.42749207 18.42749207 10.50666318 17.34590373 9.17578125 14.20703125 C8.86962891 13.49482422 8.56347656 12.78261719 8.24804688 12.04882812 C7.93931641 11.31083984 7.63058594 10.57285156 7.3125 9.8125 C6.99216797 9.06291016 6.67183594 8.31332031 6.34179688 7.54101562 C5.55475259 5.69674768 4.77650856 3.8487286 4 2 C2.68 2 1.36 2 0 2 C0 1.34 0 0.68 0 0 Z " fill="#030B58" transform="translate(35,25)"/>
<path d="M0 0 C2.97 0.495 2.97 0.495 6 1 C5.01 1.66 4.02 2.32 3 3 C2.43503665 5.00266459 2.43503665 5.00266459 2.33984375 7.31640625 C2.26830078 8.16267578 2.19675781 9.00894531 2.12304688 9.88085938 C2.06181641 10.76580078 2.00058594 11.65074219 1.9375 12.5625 C1.80918548 14.31443789 1.67289245 16.0658159 1.52734375 17.81640625 C1.47312256 18.59443604 1.41890137 19.37246582 1.36303711 20.17407227 C1.24323486 20.77662842 1.12343262 21.37918457 1 22 C0.34 22.33 -0.32 22.66 -1 23 C-0.67 15.41 -0.34 7.82 0 0 Z " fill="#030E7D" transform="translate(319,32)"/>
<path d="M0 0 C0.33 0 0.66 0 1 0 C1.33 6.93 1.66 13.86 2 21 C0.68 21 -0.64 21 -2 21 C-2.33 19.02 -2.66 17.04 -3 15 C-2.67 15 -2.34 15 -2 15 C-1.34 10.05 -0.68 5.1 0 0 Z " fill="#080C7D" transform="translate(83,27)"/>
<path d="M0 0 C1.32 0 2.64 0 4 0 C4 1.65 4 3.3 4 5 C-3.26 5 -10.52 5 -18 5 C-18 4.67 -18 4.34 -18 4 C-9.09 3.01 -9.09 3.01 0 2 C0 1.34 0 0.68 0 0 Z " fill="#0633A3" transform="translate(348,32)"/>
<path d="M0 0 C0.33 0.66 0.66 1.32 1 2 C2.66500443 2.34153937 4.33178677 2.67449498 6 3 C8 5 8 5 8 8 C5 9 5 9 2.4375 7.875 C-0.30933359 5.76205109 -1.02640613 4.27481575 -2 1 C-1.34 0.67 -0.68 0.34 0 0 Z " fill="#1B2A84" transform="translate(295,47)"/>
<path d="M0 0 C2.64 0 5.28 0 8 0 C9.50156874 3.00313748 9.09281204 5.79067522 9.0625 9.125 C9.05347656 10.40632813 9.04445313 11.68765625 9.03515625 13.0078125 C9.02355469 13.99523438 9.01195312 14.98265625 9 16 C8.34 16 7.68 16 7 16 C6.20439236 13.08500057 5.74677501 10.25438581 5.4375 7.25 C5.35371094 6.45078125 5.26992188 5.6515625 5.18359375 4.828125 C5.12300781 4.22484375 5.06242187 3.6215625 5 3 C2.525 2.01 2.525 2.01 0 1 C0 0.67 0 0.34 0 0 Z " fill="#053BA9" transform="translate(367,32)"/>
<path d="M0 0 C3.3 0 6.6 0 10 0 C10 0.66 10 1.32 10 2 C10.99 2.33 11.98 2.66 13 3 C11.4221875 3.2165625 11.4221875 3.2165625 9.8125 3.4375 C6.84539451 3.87526966 3.93205634 4.37804866 1 5 C0.67 3.35 0.34 1.7 0 0 Z " fill="#01088C" transform="translate(335,43)"/>
<path d="M0 0 C0.33 0.66 0.66 1.32 1 2 C2.66072849 2.68132451 4.327767 3.34742127 6 4 C6.66 4.66 7.32 5.32 8 6 C0.125 5.125 0.125 5.125 -1 4 C-2.34267413 3.91368126 -3.68974322 3.89293527 -5.03515625 3.90234375 C-5.84404297 3.90556641 -6.65292969 3.90878906 -7.48632812 3.91210938 C-8.7615332 3.92467773 -8.7615332 3.92467773 -10.0625 3.9375 C-10.91650391 3.94201172 -11.77050781 3.94652344 -12.65039062 3.95117188 C-14.76695663 3.96299627 -16.88348685 3.98093231 -19 4 C-19 3.67 -19 3.34 -19 3 C-17.79601562 2.95101562 -16.59203125 2.90203125 -15.3515625 2.8515625 C-13.77601802 2.77653657 -12.20049834 2.70098867 -10.625 2.625 C-9.8309375 2.5940625 -9.036875 2.563125 -8.21875 2.53125 C-3.63332625 2.48183579 -3.63332625 2.48183579 0 0 Z " fill="#0A1067" transform="translate(353,51)"/>
<path d="M0 0 C0.99 0.66 1.98 1.32 3 2 C3.2487793 4.24658203 3.2487793 4.24658203 3.07421875 7.0078125 C3.01943359 7.99394531 2.96464844 8.98007812 2.90820312 9.99609375 C2.83537109 11.02863281 2.76253906 12.06117187 2.6875 13.125 C2.62626953 14.16527344 2.56503906 15.20554687 2.50195312 16.27734375 C2.34837505 18.85273 2.18048829 21.42638232 2 24 C1.67 24 1.34 24 1 24 C0.67 17.4 0.34 10.8 0 4 C-0.99 4 -1.98 4 -3 4 C-3.33 5.98 -3.66 7.96 -4 10 C-4.33 10 -4.66 10 -5 10 C-5.3125 6.6875 -5.3125 6.6875 -5 3 C-2.5 1.0625 -2.5 1.0625 0 0 Z " fill="#0E1D93" transform="translate(227,25)"/>
<path d="M0 0 C0.99 0 1.98 0 3 0 C1.6077541 4.62675657 -0.29520984 8.64686231 -2.625 12.875 C-3.25664062 14.02742188 -3.88828125 15.17984375 -4.5390625 16.3671875 C-5.02117187 17.23601562 -5.50328125 18.10484375 -6 19 C-7.12642186 15.62073443 -6.96344705 15.27071722 -5.56640625 12.20703125 C-5.0878418 11.1387207 -5.0878418 11.1387207 -4.59960938 10.04882812 C-4.25736328 9.31083984 -3.91511719 8.57285156 -3.5625 7.8125 C-3.22412109 7.06291016 -2.88574219 6.31332031 -2.53710938 5.54101562 C-1.7000589 3.69007302 -0.85114596 1.84450334 0 0 Z " fill="#090564" transform="translate(187,47)"/>
<path d="M0 0 C4.60762494 3.76987495 5.19777089 9.3843962 6 15 C4.125 14.375 4.125 14.375 2 13 C-0.03569718 8.62325105 -0.19117978 4.77949439 0 0 Z " fill="#1B3091" transform="translate(376,40)"/>
<path d="M0 0 C0.33 0 0.66 0 1 0 C1.08074203 2.62561109 1.1403623 5.24875676 1.1875 7.875 C1.22520508 8.99455078 1.22520508 8.99455078 1.26367188 10.13671875 C1.29296875 12.3046875 1.29296875 12.3046875 1 16 C0.01 16.66 -0.98 17.32 -2 18 C-2.2361959 11.59646678 -1.823321 6.15370839 0 0 Z " fill="#000289" transform="translate(247,35)"/>
<path d="M0 0 C3.80666984 1.44390925 5.26602582 3.34952803 7 7 C6.67 7.66 6.34 8.32 6 9 C4 7.625 4 7.625 2 6 C2 5.34 2 4.68 2 4 C1.34 4 0.68 4 0 4 C-0.12375 4.969375 -0.2475 5.93875 -0.375 6.9375 C-0.58125 7.948125 -0.7875 8.95875 -1 10 C-1.99 10.495 -1.99 10.495 -3 11 C-2.88590407 9.54077307 -2.75834456 8.08259402 -2.625 6.625 C-2.55539063 5.81289063 -2.48578125 5.00078125 -2.4140625 4.1640625 C-2 2 -2 2 0 0 Z " fill="#01026E" transform="translate(211,43)"/>
<path d="M0 0 C1.67542976 0.28604898 3.34385343 0.61781233 5 1 C5.33 1.99 5.66 2.98 6 4 C5.01 4.495 5.01 4.495 4 5 C3.34 4.67 2.68 4.34 2 4 C1.87625 5.134375 1.7525 6.26875 1.625 7.4375 C1.41875 8.613125 1.2125 9.78875 1 11 C0.01 11.495 0.01 11.495 -1 12 C-1.02687279 10.18757948 -1.04633715 8.37504767 -1.0625 6.5625 C-1.07410156 5.55316406 -1.08570313 4.54382812 -1.09765625 3.50390625 C-1 1 -1 1 0 0 Z " fill="#102198" transform="translate(285,42)"/>
<path d="M0 0 C2.64 0 5.28 0 8 0 C8.33 0.66 8.66 1.32 9 2 C6.36 2.33 3.72 2.66 1 3 C1.33 5.97 1.66 8.94 2 12 C3.98 12.66 5.96 13.32 8 14 C8 14.33 8 14.66 8 15 C5.69 15 3.38 15 1 15 C-0.44207941 12.11584117 -0.09394887 9.58278472 -0.0625 6.375 C-0.05347656 5.18648437 -0.04445313 3.99796875 -0.03515625 2.7734375 C-0.02355469 1.85820313 -0.01195312 0.94296875 0 0 Z " fill="#000098" transform="translate(359,32)"/>
<path d="M0 0 C-0.185625 0.70125 -0.37125 1.4025 -0.5625 2.125 C-1.05156976 5.33888698 -0.66231558 7.83560336 0 11 C-0.99 11.33 -1.98 11.66 -3 12 C-3.33 9.69 -3.66 7.38 -4 5 C-5.65 4.67 -7.3 4.34 -9 4 C-7.68 3.67 -6.36 3.34 -5 3 C-5 2.34 -5 1.68 -5 1 C-3 0 -3 0 0 0 Z " fill="#2238A5" transform="translate(396,39)"/>
<path d="M0 0 C0.66 0 1.32 0 2 0 C3.19942605 2.59925496 4.38472821 5.20345507 5.5625 7.8125 C5.90474609 8.55048828 6.24699219 9.28847656 6.59960938 10.04882812 C6.91865234 10.76103516 7.23769531 11.47324219 7.56640625 12.20703125 C7.86490479 12.8616333 8.16340332 13.51623535 8.47094727 14.19067383 C9 16 9 16 8 19 C5.69 14.05 3.38 9.1 1 4 C0.01 4.495 0.01 4.495 -1 5 C-0.67 3.35 -0.34 1.7 0 0 Z " fill="#040666" transform="translate(69,34)"/>
<path d="M0 0 C0.99 0 1.98 0 3 0 C3.33 4.29 3.66 8.58 4 13 C2.68 12.34 1.36 11.68 0 11 C0 7.37 0 3.74 0 0 Z " fill="#010585" transform="translate(252,38)"/>
<path d="M0 0 C1.32 0 2.64 0 4 0 C4 3.3 4 6.6 4 10 C0.77686187 7.19275066 -0.64998321 5.31687378 -1 1 C-0.67 0.67 -0.34 0.34 0 0 Z " fill="#020986" transform="translate(218,34)"/>
<path d="M0 0 C0.66 0 1.32 0 2 0 C2.99 3.3 3.98 6.6 5 10 C4.34 10.66 3.68 11.32 3 12 C2.29773859 10.75823305 1.61370891 9.50614401 0.9375 8.25 C0.36322266 7.20585938 0.36322266 7.20585938 -0.22265625 6.140625 C-1.1312406 3.63859372 -0.88336837 2.4667645 0 0 Z " fill="#040DC0" transform="translate(300,42)"/>
<path d="M0 0 C0.99 1.32 1.98 2.64 3 4 C2.67 4.66 2.34 5.32 2 6 C-0.72265625 6.4140625 -0.72265625 6.4140625 -4.0625 6.625 C-5.16722656 6.69976562 -6.27195312 6.77453125 -7.41015625 6.8515625 C-8.26480469 6.90054688 -9.11945312 6.94953125 -10 7 C-10 6.01 -10 5.02 -10 4 C-6.7 4 -3.4 4 0 4 C0 2.68 0 1.36 0 0 Z " fill="#0E1771" transform="translate(73,45)"/>
<path d="M0 0 C5.61 0 11.22 0 17 0 C17 0.33 17 0.66 17 1 C12.38 1.33 7.76 1.66 3 2 C2.67 3.65 2.34 5.3 2 7 C1.66666667 8.66666667 1.33333333 10.33333333 1 12 C0.67 12 0.34 12 0 12 C0 8.04 0 4.08 0 0 Z " fill="#1E34A3" transform="translate(255,37)"/>
<path d="M0 0 C1 3 1 3 0.3125 4.9375 C-1.21178067 7.33279819 -2.86483704 9.13173241 -5 11 C-5.66 11 -6.32 11 -7 11 C-7.33 9.35 -7.66 7.7 -8 6 C-6.8553125 5.9071875 -6.8553125 5.9071875 -5.6875 5.8125 C-2.76948191 5.23064738 -2.76948191 5.23064738 -1.1875 2.4375 C-0.795625 1.633125 -0.40375 0.82875 0 0 Z " fill="#15227B" transform="translate(54,30)"/>
<path d="M0 0 C0.99 0.495 0.99 0.495 2 1 C2.6328125 3.06640625 2.6328125 3.06640625 3.125 5.5625 C3.29257813 6.38878906 3.46015625 7.21507812 3.6328125 8.06640625 C3.75398437 8.70449219 3.87515625 9.34257813 4 10 C5.65 10 7.3 10 9 10 C9 10.66 9 11.32 9 12 C3.6 12.48 3.6 12.48 1.125 10.5 C-0.50517055 6.87739877 -0.19772667 3.95453342 0 0 Z " fill="#010462" transform="translate(236,43)"/>
<path d="M0 0 C4.29 0 8.58 0 13 0 C13 0.66 13 1.32 13 2 C8.38926889 3.29676812 4.66159911 2.71109139 0 2 C0 1.34 0 0.68 0 0 Z " fill="#3A4889" transform="translate(360,53)"/>
<path d="M0 0 C0.66 0.33 1.32 0.66 2 1 C1.67 3.31 1.34 5.62 1 8 C1.66 8 2.32 8 3 8 C3 8.66 3 9.32 3 10 C1.35 10 -0.3 10 -2 10 C-1.34 6.7 -0.68 3.4 0 0 Z " fill="#2A3A8A" transform="translate(315,45)"/>
<path d="M0 0 C0.33 0 0.66 0 1 0 C1.33975517 3.65236803 1.20830209 5.61672415 -0.5625 8.875 C-3 11 -3 11 -6.75 11.3125 C-7.8225 11.209375 -8.895 11.10625 -10 11 C-10 10.67 -10 10.34 -10 10 C-8.906875 9.835 -7.81375 9.67 -6.6875 9.5 C-2.99455496 8.43130321 -2.99455496 8.43130321 -1.8671875 6.0859375 C-1.13382276 4.07096447 -0.50850828 2.0824625 0 0 Z " fill="#03076A" transform="translate(230,44)"/>
<path d="M0 0 C1.32 0.33 2.64 0.66 4 1 C3.01 4.3 2.02 7.6 1 11 C0.67 11 0.34 11 0 11 C0 7.37 0 3.74 0 0 Z " fill="#031DA7" transform="translate(382,43)"/>
<path d="M0 0 C4.75 0.75 4.75 0.75 7 3 C6.34 3 5.68 3 5 3 C5 3.66 5 4.32 5 5 C3.35 5 1.7 5 0 5 C0 3.35 0 1.7 0 0 Z " fill="#233496" transform="translate(131,32)"/>
<path d="M0 0 C2.97 0 5.94 0 9 0 C8.01 2.31 7.02 4.62 6 7 C5.34 6.67 4.68 6.34 4 6 C4 4.68 4 3.36 4 2 C2.68 1.34 1.36 0.68 0 0 Z " fill="#27349F" transform="translate(192,15)"/>
<path d="M0 0 C0.99 0 1.98 0 3 0 C3.33 2.97 3.66 5.94 4 9 C2.35 8.67 0.7 8.34 -1 8 C-0.67 5.36 -0.34 2.72 0 0 Z " fill="#1F39A4" transform="translate(297,41)"/>
<path d="M0 0 C2.31 0 4.62 0 7 0 C6.01 0.495 6.01 0.495 5 1 C5.33 3.64 5.66 6.28 6 9 C5.34 8.67 4.68 8.34 4 8 C3.855625 7.38125 3.71125 6.7625 3.5625 6.125 C2.90072657 3.62496703 1.87768792 2.71441071 0 1 C0 0.67 0 0.34 0 0 Z " fill="#2637A0" transform="translate(287,37)"/>
<path d="M0 0 C2.64 0 5.28 0 8 0 C7.67 0.99 7.34 1.98 7 3 C5.35 2.67 3.7 2.34 2 2 C1.67 3.98 1.34 5.96 1 8 C0.67 8 0.34 8 0 8 C0 5.36 0 2.72 0 0 Z " fill="#0000EE" transform="translate(303,32)"/>
<path d="M0 0 C0.66 0.33 1.32 0.66 2 1 C2 1.99 2 2.98 2 4 C3.32 4.33 4.64 4.66 6 5 C6 5.66 6 6.32 6 7 C5.01 7.33 4.02 7.66 3 8 C1.35 6.35 -0.3 4.7 -2 3 C-1.34 2.67 -0.68 2.34 0 2 C0 1.34 0 0.68 0 0 Z " fill="#1F297F" transform="translate(328,45)"/>
<path d="M0 0 C1.98 0 3.96 0 6 0 C6 1.32 6 2.64 6 4 C4.35 4 2.7 4 1 4 C0.67 2.68 0.34 1.36 0 0 Z " fill="#1E2C80" transform="translate(393,51)"/>
<path d="M0 0 C1.65 0 3.3 0 5 0 C5.79953138 3.28696233 6.09658936 4.71023192 5 8 C4.731875 7.195625 4.46375 6.39125 4.1875 5.5625 C3.795625 4.716875 3.40375 3.87125 3 3 C2.01 2.67 1.02 2.34 0 2 C0 1.34 0 0.68 0 0 Z " fill="#00269A" transform="translate(387,43)"/>
<path d="M0 0 C-0.99 0 -1.98 0 -3 0 C-3 0.66 -3 1.32 -3 2 C-4.98 2 -6.96 2 -9 2 C-8.67 1.01 -8.34 0.02 -8 -1 C-4.71293093 -2.47351372 -2.99288606 -1.8171094 0 0 Z " fill="#020772" transform="translate(257,33)"/>
<path d="M0 0 C2.475 0.495 2.475 0.495 5 1 C4.01 1.66 3.02 2.32 2 3 C1.41651248 5.6556728 1.41651248 5.6556728 1.3125 8.625 C1.24675781 9.62789062 1.18101562 10.63078125 1.11328125 11.6640625 C1.07589844 12.43492188 1.03851563 13.20578125 1 14 C0.67 14 0.34 14 0 14 C0 9.38 0 4.76 0 0 Z " fill="#000069" transform="translate(320,32)"/>
<path d="M0 0 C0.66 0.33 1.32 0.66 2 1 C2 3.97 2 6.94 2 10 C1.01 10 0.02 10 -1 10 C-0.814375 9.05125 -0.62875 8.1025 -0.4375 7.125 C0.28686632 4.10131207 0.28686632 4.10131207 -1 2 C-0.67 1.34 -0.34 0.68 0 0 Z " fill="#000063" transform="translate(200,12)"/>
<path d="M0 0 C2.31 0 4.62 0 7 0 C6.01 0.33 5.02 0.66 4 1 C4 1.66 4 2.32 4 3 C0.7 3 -2.6 3 -6 3 C-6 2.67 -6 2.34 -6 2 C-4.02 2 -2.04 2 0 2 C0 1.34 0 0.68 0 0 Z " fill="#000363" transform="translate(36,12)"/>
<path d="M0 0 C1.65 0.33 3.3 0.66 5 1 C4.34 1.66 3.68 2.32 3 3 C2.34 2.67 1.68 2.34 1 2 C0.67 4.31 0.34 6.62 0 9 C-0.33 9 -0.66 9 -1 9 C-0.67 6.03 -0.34 3.06 0 0 Z " fill="#0002B1" transform="translate(286,44)"/>
<path d="M0 0 C0.66 1.32 1.32 2.64 2 4 C0.68 4 -0.64 4 -2 4 C-2 3.34 -2 2.68 -2 2 C-4.31 2 -6.62 2 -9 2 C-9 1.67 -9 1.34 -9 1 C-4.545 0.505 -4.545 0.505 0 0 Z " fill="#213393" transform="translate(120,33)"/>
<path d="M0 0 C-0.33 1.65 -0.66 3.3 -1 5 C-1.99 5 -2.98 5 -4 5 C-4.66 3.68 -5.32 2.36 -6 1 C-3 0 -3 0 0 0 Z " fill="#182D97" transform="translate(279,26)"/>
<path d="M0 0 C0.66 0 1.32 0 2 0 C2 2.64 2 5.28 2 8 C1.01 7.34 0.02 6.68 -1 6 C-0.67 4.02 -0.34 2.04 0 0 Z " fill="#1E2A92" transform="translate(154,41)"/>
<path d="M0 0 C0.66 0 1.32 0 2 0 C2 0.99 2 1.98 2 3 C1.34 3 0.68 3 0 3 C-0.33 4.98 -0.66 6.96 -1 9 C-1.66 8.34 -2.32 7.68 -3 7 C-3 6.01 -3 5.02 -3 4 C-2.34 4 -1.68 4 -1 4 C-0.67 2.68 -0.34 1.36 0 0 Z " fill="#0B0D69" transform="translate(154,38)"/>
<path d="M0 0 C1.98 0 3.96 0 6 0 C6 0.66 6 1.32 6 2 C5.34 2 4.68 2 4 2 C3.67 2.66 3.34 3.32 3 4 C1.68 3.34 0.36 2.68 -1 2 C-0.67 1.34 -0.34 0.68 0 0 Z " fill="#081EC8" transform="translate(386,34)"/>
<path d="M0 0 C1.98 0.495 1.98 0.495 4 1 C3.67 2.32 3.34 3.64 3 5 C1.68 4.67 0.36 4.34 -1 4 C-0.67 2.68 -0.34 1.36 0 0 Z " fill="#0000FF" transform="translate(291,32)"/>
<path d="M0 0 C0 0.99 0 1.98 0 3 C-0.99 3.33 -1.98 3.66 -3 4 C-3.99 2.68 -4.98 1.36 -6 0 C-2.25 -1.125 -2.25 -1.125 0 0 Z " fill="#333F93" transform="translate(303,52)"/>
<path d="M0 0 C1.65 1.65 3.3 3.3 5 5 C3.68 5.33 2.36 5.66 1 6 C0.01 4.68 -0.98 3.36 -2 2 C-1.34 1.34 -0.68 0.68 0 0 Z " fill="#020356" transform="translate(84,48)"/>
<path d="M0 0 C0.33 0 0.66 0 1 0 C1 3.3 1 6.6 1 10 C0.34 10 -0.32 10 -1 10 C-2.46726798 6.18510326 -1.43336419 3.70988378 0 0 Z " fill="#091C9C" transform="translate(393,26)"/>
<path d="M0 0 C3 1 3 1 3 1 Z " fill="#000000" transform="translate(345,57)"/>
<path d="M0 0 C3 1 3 1 3 1 Z " fill="#000071" transform="translate(334,56)"/>
<path d="" fill="#FFFFFF" transform="translate(0,0)"/>
<path d="M0 0 C2 1 2 1 2 1 Z " fill="#000000" transform="translate(316,57)"/>
<path d="M0 0 C2 1 2 1 2 1 Z " fill="#000040" transform="translate(350,56)"/>
<path d="M0 0 C2 1 2 1 2 1 Z " fill="#7F0000" transform="translate(318,56)"/>
<path d="M0 0 C2 1 2 1 2 1 Z " fill="#000000" transform="translate(312,56)"/>
<path d="M0 0 C2 1 2 1 2 1 Z " fill="#00002A" transform="translate(331,55)"/>
<path d="" fill="#000000" transform="translate(0,0)"/>
<path d="" fill="#FFFFFF" transform="translate(0,0)"/>
<path d="" fill="#FFFFFF" transform="translate(0,0)"/>
<path d="" fill="#FFFFFF" transform="translate(0,0)"/>
<path d="" fill="#FFFFFF" transform="translate(0,0)"/>
<path d="" fill="#FFFFFF" transform="translate(0,0)"/>
<path d="" fill="#FFFFFF" transform="translate(0,0)"/>
<path d="" fill="#FFFFFF" transform="translate(0,0)"/>
<path d="" fill="#FFFFFF" transform="translate(0,0)"/>
<path d="" fill="#FFFFFF" transform="translate(0,0)"/>
<path d="" fill="#FFFFFF" transform="translate(0,0)"/>
<path d="" fill="#FFFFFF" transform="translate(0,0)"/>
<path d="" fill="#FFFFFF" transform="translate(0,0)"/>
<path d="" fill="#FFFFFF" transform="translate(0,0)"/>
<path d="" fill="#FFFFFF" transform="translate(0,0)"/>
<path d="" fill="#FFFFFF" transform="translate(0,0)"/>
<path d="" fill="#FFFFFF" transform="translate(0,0)"/>
<path d="" fill="#FFFFFF" transform="translate(0,0)"/>
<path d="" fill="#FFFFFF" transform="translate(0,0)"/>
<path d="" fill="#FFFFFF" transform="translate(0,0)"/>
<path d="" fill="#FFFFFF" transform="translate(0,0)"/>
<path d="" fill="#FFFFFF" transform="translate(0,0)"/>
<path d="" fill="#FFFFFF" transform="translate(0,0)"/>
<path d="" fill="#000080" transform="translate(0,0)"/>
<path d="" fill="#FFFFFF" transform="translate(0,0)"/>
<path d="" fill="#FFFFFF" transform="translate(0,0)"/>
<path d="" fill="#FFFFFF" transform="translate(0,0)"/>
<path d="" fill="#000000" transform="translate(0,0)"/>
<path d="" fill="#FFFFFF" transform="translate(0,0)"/>
<path d="" fill="#FFFFFF" transform="translate(0,0)"/>
<path d="" fill="#FFFFFF" transform="translate(0,0)"/>
<path d="" fill="#FFFFFF" transform="translate(0,0)"/>
<path d="" fill="#FFFFFF" transform="translate(0,0)"/>
<path d="" fill="#FFFFFF" transform="translate(0,0)"/>
<path d="" fill="#FFFFFF" transform="translate(0,0)"/>
<path d="" fill="#FFFFFF" transform="translate(0,0)"/>
<path d="" fill="#FFFFFF" transform="translate(0,0)"/>
<path d="" fill="#FFFFFF" transform="translate(0,0)"/>
<path d="" fill="#FFFFFF" transform="translate(0,0)"/>
<path d="" fill="#FFFFFF" transform="translate(0,0)"/>
<path d="" fill="#FFFFFF" transform="translate(0,0)"/>
<path d="" fill="#FFFFFF" transform="translate(0,0)"/>
<path d="" fill="#FFFFFF" transform="translate(0,0)"/>
<path d="" fill="#FFFFFF" transform="translate(0,0)"/>
<path d="" fill="#FFFFFF" transform="translate(0,0)"/>
<path d="" fill="#FFFFFF" transform="translate(0,0)"/>
<path d="" fill="#FFFFFF" transform="translate(0,0)"/>
<path d="" fill="#FFFFFF" transform="translate(0,0)"/>
<path d="" fill="#FFFFFF" transform="translate(0,0)"/>
<path d="" fill="#FFFFFF" transform="translate(0,0)"/>
<path d="" fill="#000000" transform="translate(0,0)"/>
<path d="" fill="#000000" transform="translate(0,0)"/>
</svg>
